<svg width="200" height="80" viewBox="0 0 200 80" fill="none" xmlns="http://www.w3.org/2000/svg">
<path d="M69.9987 74V24.9781H72.2179V32.6893C72.4799 32.3474 72.7219 31.9842 72.9422 31.6023C74.7957 26.9947 78.705 24.0868 82.9729 24.1442C88.0326 23.9634 92.1443 26.2076 94.5605 31.6023C96.0981 34.9537 96.9442 38.6972 97.0282 42.5202C97.1122 46.3433 96.4317 50.135 95.0434 53.5786C92.7923 59.6242 87.2319 62.63 81.2792 61.526C79.4267 61.3373 77.6431 60.5956 76.0912 59.3686C74.5394 58.1416 73.2688 56.4685 72.3954 54.5019V73.9979L69.9987 74ZM72.2179 42.3192L72.7149 48.0755C73.592 54.6274 76.8249 58.4989 81.9006 59.2264C84.2842 59.696 86.7299 59.1605 88.8209 57.7114C90.9119 56.2622 92.5187 53.9889 93.3675 51.2791C95.3417 45.642 95.1961 39.2603 92.9769 33.755C92.0711 31.3259 90.5299 29.3161 88.5864 28.0293C86.6429 26.7425 84.4026 26.2487 82.2042 26.6224C80.1406 26.8023 78.1749 27.7478 76.5804 29.3276C74.9858 30.9073 73.8414 33.0429 73.3061 35.4377C72.8335 37.7039 72.4702 40.0008 72.2179 42.3171V42.3192ZM142.34 48.9817C142.004 52.4333 140.632 55.6209 138.481 57.9518C136.33 60.2827 133.546 61.5982 130.646 61.6536C121.34 62.2152 116.972 54.8103 116.278 46.2652C115.796 41.6248 116.424 36.9156 118.091 32.6872C119.251 29.7864 121.152 27.4036 123.517 25.8837C125.883 24.3638 128.591 23.7858 131.25 24.2336C133.777 24.4909 136.173 25.6941 138.098 27.6727C140.023 29.6514 141.38 32.3053 141.976 35.259C142.449 37.9496 142.797 40.6695 143.019 43.4062H118.577C118.125 51.1536 121.599 57.3821 126.524 58.8839C132.658 60.6921 137.9 57.5076 139.803 50.5197C140.226 48.7264 140.996 48.4733 142.356 48.9817H142.34ZM118.56 40.9259H140.421C140.284 32.6723 135.995 26.6735 130.177 26.6054C123.609 26.4778 118.845 32.2362 118.56 40.9259ZM146.859 49.1625H149.001C149.08 51.0541 149.593 52.883 150.483 54.448C151.373 56.0131 152.606 57.2536 154.047 58.0331C155.856 59.0084 157.825 59.4825 159.808 59.4198C161.791 59.3572 163.736 58.7596 165.5 57.6714C166.461 57.1528 167.266 56.2931 167.807 55.2085C168.347 54.1239 168.596 52.8667 168.521 51.6067C168.577 50.3916 168.3 49.1879 167.733 48.1783C167.166 47.1688 166.339 46.4082 165.379 46.0121C163.021 44.9613 160.515 44.3826 158.112 43.4594C155.613 42.6068 153.169 41.536 150.8 40.2558C146.93 37.9925 146.69 29.1772 151.071 26.3863C153.315 24.8694 155.84 24.0498 158.416 24.0022C160.991 23.9547 163.536 24.6807 165.817 26.114C168.647 27.986 170.211 31.7661 169.746 35.6015H167.909C167.909 35.4951 167.742 35.4015 167.742 35.293C167.515 28.2732 162.59 26.0779 157.303 26.6948C155.705 26.9075 154.191 27.4861 152.77 28.3412C151.917 28.8084 151.205 29.582 150.734 30.555C150.264 31.5279 150.057 32.6521 150.143 33.772C150.145 34.8928 150.436 35.9854 150.977 36.8995C151.518 37.8137 152.282 38.5047 153.165 38.8774C155.473 39.8921 157.923 40.543 160.31 41.3386L166.08 43.1467C167.392 43.6625 168.542 44.6431 169.378 45.9589C170.214 47.2746 170.697 48.8635 170.764 50.5154C171.225 54.2274 169.645 57.8756 166.851 59.5668C161.805 62.9874 153.495 62.0833 149.793 57.7586C147.899 55.4761 146.843 52.3768 146.864 49.1604L146.859 49.1625ZM197.953 35.6036H195.943C195.943 35.2781 195.837 34.9654 195.807 34.7165C195.774 32.9115 195.225 31.1746 194.252 29.797C193.278 28.4194 191.938 27.4848 190.457 27.15C187.664 26.1901 184.685 26.3621 181.982 27.6392C180.913 28.0058 179.972 28.777 179.299 29.8376C178.627 30.8981 178.259 32.1911 178.25 33.5232C178.212 34.8311 178.552 36.1147 179.212 37.157C179.873 38.1993 180.814 38.9362 181.875 39.2433L191.061 42.0682C192.054 42.3537 193.033 42.7103 193.99 43.1361C196.92 44.4124 198.908 47.6713 198.997 51.3961C199.041 53.2193 198.623 55.0158 197.8 56.5496C196.976 58.0834 195.784 59.2827 194.381 59.9901C192.249 61.1505 189.938 61.7645 187.597 61.7927C185.255 61.8209 182.935 61.2627 180.784 60.1539C179.015 59.2399 177.522 57.6985 176.506 55.7372C175.49 53.7759 175.001 51.4888 175.103 49.1838H177.066C177.805 53.4489 180.249 57.0013 183.603 58.6819C186.956 60.3624 190.786 59.9497 193.836 57.5842C194.751 57.014 195.511 56.1415 196.025 55.0701C196.539 53.9987 196.786 52.7731 196.737 51.5386C196.782 50.3226 196.496 49.1221 195.92 48.1189C195.345 47.1158 194.512 46.365 193.548 45.9802C191.191 44.9293 188.684 44.3699 186.282 43.4275C183.768 42.588 181.309 41.5293 178.925 40.2601C175.147 38.0329 174.845 29.29 179.152 26.5012C181.423 24.9206 183.997 24.0715 186.624 24.0365C189.25 24.0014 191.839 24.7817 194.14 26.3012C195.455 27.242 196.514 28.6208 197.187 30.2698C197.861 31.9188 198.119 33.7668 197.932 35.5887L197.953 35.6036ZM66.3468 60.7687C65.5557 61.1271 64.6825 61.1261 63.892 60.766C63.1014 60.4058 62.4483 59.7114 62.0558 58.8137L54.2443 45.8696L53.1116 44.0614L44.0467 58.8329C43.6772 59.6919 43.0594 60.3604 42.3086 60.7135C41.5579 61.0667 40.7255 61.0802 39.967 60.7516L51.6452 41.9789L40.7801 25.0164C42.3921 24.3187 44.1887 25.0759 45.0853 26.8245L53.1809 39.9282L61.3243 26.8756C61.6966 26.0312 62.3148 25.3803 63.0614 25.0465C63.8081 24.7127 64.6311 24.7194 65.3739 25.0653L61.1575 31.7682L55.4462 40.6749C55.2877 40.8445 55.1608 41.0523 55.074 41.2847C54.9872 41.5171 54.9423 41.7689 54.9423 42.0236C54.9423 42.2782 54.9872 42.53 55.074 42.7624C55.1608 42.9948 55.2877 43.2026 55.4462 43.3722L66.3237 60.7687H66.3468ZM115.932 24.8356V27.3882C114.404 27.2681 112.872 27.5333 111.435 28.1666C109.997 28.7999 108.687 29.7872 107.588 31.0649C106.489 32.3425 105.625 33.8821 105.054 35.5843C104.482 37.2865 104.214 39.1134 104.268 40.9472C104.268 46.9091 104.268 52.871 104.268 58.8329V60.8601H102.108V24.9951H104.238V32.3447C106.851 26.9841 110.885 24.9951 115.946 24.8505L115.932 24.8356ZM12.0036 41.7449L12.9551 36.1141C15.5684 24.9802 26.2205 20.3471 33.5491 27.2436C37.8401 31.2811 38.9106 37.0012 38.7012 43.4467H14.5263C14.1357 54.9592 21.0685 61.911 29.9363 58.3628C32.8585 57.0864 35.0582 54.1764 35.7825 50.5601C36.2512 48.752 37.0252 48.4414 38.442 48.9647C38.2057 51.1688 37.5554 53.28 36.54 55.1395C35.5247 56.9991 34.1706 58.5586 32.5798 59.7008C29.9515 61.4231 26.936 62.1055 23.9645 61.6504C20.993 61.1954 18.2177 59.6262 16.0354 57.1673C13.8765 54.2594 12.5734 50.5835 12.3196 46.7013C12.3196 46.0632 12.142 45.4675 12.0178 44.8932C12.0059 43.8196 12 42.7702 12 41.7449H12.0036ZM14.5565 40.9663H36.4181C36.2814 32.6212 31.8856 26.7011 26.0234 26.6458C19.4973 26.5395 14.8281 32.3298 14.5405 40.9302L14.5565 40.9663Z" fill="black"/>
</svg>
