<svg width="200" height="80" viewBox="0 0 200 80" fill="none" xmlns="http://www.w3.org/2000/svg">
<path fill-rule="evenodd" clip-rule="evenodd" d="M21.8579 26.6667H43.7158V0H0.437134V0.272111L21.8579 26.6667Z" fill="#67DBFF"/>
<path fill-rule="evenodd" clip-rule="evenodd" d="M21.8579 26.6665H0V53.3332H43.2787V53.0611L21.8579 26.6665Z" fill="#01A3FF"/>
<path fill-rule="evenodd" clip-rule="evenodd" d="M0.218628 53.0613H21.858V80.0001L0.218628 53.0613Z" fill="#0162FF"/>
<path d="M73.4427 53.0613V38.3674H86.3389V31.5646H73.4427V21.7687H87.4318V14.6938H67.1039V52.7892H73.4427V53.0613Z" fill="#191D26"/>
<path d="M103.607 25.3059C103.169 25.0338 102.295 24.7617 101.202 24.7617C99.0164 24.7617 97.2678 26.1223 96.1749 28.027V25.3059H90.0547V53.0611H96.1749V35.9182C96.6121 33.4692 98.3607 32.1087 100.328 32.1087C101.421 32.1087 102.514 32.3808 103.388 32.925V25.3059H103.607Z" fill="#191D26"/>
<path d="M124.153 53.0611V35.374C124.153 28.8434 120.656 24.7617 114.754 24.7617C109.727 24.7617 106.011 28.5713 105.355 33.7413H111.257C111.694 32.1087 112.787 31.0202 114.536 31.0202C116.94 31.0202 118.252 32.925 118.252 35.374V37.2788C117.377 36.4624 115.191 35.6461 113.224 35.6461C108.415 35.6461 104.7 39.1835 104.7 44.6257C104.7 50.34 108.415 53.6053 113.006 53.6053C115.41 53.6053 117.596 52.5169 118.47 51.7006V53.0611H124.153ZM118.252 45.442C117.596 46.8026 116.066 47.891 114.317 47.891C112.35 47.891 110.383 46.8026 110.383 44.3536C110.383 41.9046 112.35 40.8162 114.317 40.8162C116.066 40.8162 117.814 41.6325 118.252 43.2652V45.442Z" fill="#191D26"/>
<path d="M146.011 28.2991C144.699 26.1223 142.732 24.7617 140.109 24.7617C137.705 24.7617 135.519 25.8502 134.426 27.7549V25.5781H128.306V53.3332H134.426V35.374C134.863 32.925 136.393 31.8366 137.924 31.8366C140.109 31.8366 140.984 33.7413 140.984 36.7345V53.3332H147.104V35.374C147.541 32.925 148.852 31.8366 150.601 31.8366C152.787 31.8366 153.88 33.7413 153.88 36.7345V53.3332H160V35.1019C160 28.8434 157.158 24.7617 152.568 24.7617C149.727 24.7617 147.541 26.3944 146.011 28.2991Z" fill="#191D26"/>
<path d="M177.705 44.0815C177.268 46.5305 175.738 47.6189 173.552 47.6189C170.71 47.6189 168.962 45.1699 168.743 41.0883H183.607V38.6393C183.607 30.476 180.109 24.7617 173.552 24.7617C167.432 24.7617 162.842 31.0202 162.842 39.1835C162.842 47.6189 167.213 53.6053 173.552 53.6053C179.235 53.6053 182.514 49.7958 183.388 43.8094H177.705V44.0815ZM173.552 31.0202C176.175 31.0202 177.486 33.1971 177.486 36.1903H168.962C169.618 32.925 171.148 31.0202 173.552 31.0202Z" fill="#191D26"/>
<path d="M200 25.3059C199.563 25.0338 198.689 24.7617 197.596 24.7617C195.41 24.7617 193.661 26.1223 192.568 28.027V25.3059H186.448V53.0611H192.568V35.9182C193.006 33.4692 194.754 32.1087 196.721 32.1087C197.814 32.1087 198.907 32.3808 199.781 32.925V25.3059H200Z" fill="#191D26"/>
</svg>
