<svg width="200" height="80" viewBox="0 0 200 80" fill="none" xmlns="http://www.w3.org/2000/svg">
<g clip-path="url(#clip0_183_479)">
<path d="M119.517 27.6836C115.147 27.6836 111.89 29.7288 111.89 34.647C111.89 38.3522 114.034 40.927 119.281 40.927C123.73 40.927 126.752 38.434 126.752 34.494C126.752 30.0305 124.048 27.6836 119.517 27.6836ZM110.777 62.4227C109.743 63.6314 108.711 64.9183 108.711 66.4331C108.711 69.4592 112.761 70.367 118.325 70.367C122.938 70.367 129.216 70.0609 129.216 65.9818C129.216 63.5531 126.195 63.4036 122.378 63.1757L110.777 62.4227ZM134.303 27.9114C135.731 29.654 137.244 32.0757 137.244 35.5575C137.244 43.954 130.33 48.8757 120.316 48.8757C117.769 48.8757 115.465 48.5731 114.034 48.1931L111.413 52.2044L119.199 52.6566C132.952 53.4914 141.057 53.8722 141.057 63.9331C141.057 72.6357 133.03 77.5549 119.199 77.5549C104.816 77.5549 99.3297 74.0731 99.3297 68.094C99.3297 64.6879 100.921 62.8766 103.703 60.374C101.078 59.3209 100.207 57.4288 100.207 55.3836C100.207 53.7192 101.078 52.2044 102.511 50.7644C103.942 49.3279 105.53 47.8905 107.438 46.2262C103.546 44.4088 100.603 40.4722 100.603 34.8714C100.603 26.1688 106.642 20.1931 118.804 20.1931C122.221 20.1931 124.287 20.4922 126.117 20.9514H141.616V27.3809L134.304 27.9114" fill="#362701"/>
<mask id="mask0_183_479" style="mask-type:luminance" maskUnits="userSpaceOnUse" x="145" y="0" width="24" height="60">
<path d="M145.205 0.687012H168.036V60.0001H145.205V0.687012Z" fill="white"/>
</mask>
<g mask="url(#mask0_183_479)">
<path d="M155.597 14.1573C151.067 14.1573 148.445 11.6617 148.445 7.34343C148.445 3.03299 151.067 0.686035 155.597 0.686035C160.209 0.686035 162.832 3.03386 162.832 7.34343C162.832 11.6608 160.21 14.1573 155.597 14.1573ZM145.344 59.6399V53.6608L149.397 53.1339C150.51 52.9817 150.67 52.7539 150.67 51.6156V29.3678C150.67 28.5391 150.432 28.006 149.636 27.7817L145.344 26.3417L146.218 20.2139H162.671V51.6173C162.671 52.8339 162.75 52.9826 163.945 53.1356L167.997 53.6626V59.6408L145.344 59.6399Z" fill="#362701"/>
</g>
<mask id="mask1_183_479" style="mask-type:luminance" maskUnits="userSpaceOnUse" x="167" y="7" width="33" height="53">
<path d="M167.123 7.82617H199.426V60.0001H167.123V7.82617Z" fill="white"/>
</mask>
<g mask="url(#mask1_183_479)">
<path d="M199.426 56.7045C196.008 58.2915 191.003 59.7315 186.469 59.7315C177.012 59.7315 173.437 56.1011 173.437 47.5445V27.7211C173.437 27.2654 173.437 26.9637 172.798 26.9637H167.234V20.228C174.233 19.4706 177.012 16.1385 177.886 7.89062H185.438V18.6385C185.438 19.168 185.438 19.395 186.073 19.395H197.279V26.9637H185.438V45.048C185.438 49.5141 186.551 51.2532 190.843 51.2532C193.068 51.2532 195.373 50.7237 197.279 50.0445L199.426 56.7045Z" fill="#362701"/>
</g>
<mask id="mask2_183_479" style="mask-type:luminance" maskUnits="userSpaceOnUse" x="0" y="0" width="85" height="80">
<path d="M0 0.687012H84.0183V80.0001H0V0.687012Z" fill="white"/>
</mask>
<g mask="url(#mask2_183_479)">
<path d="M81.6639 36.8445L45.3233 2.24537C44.8256 1.77137 44.2348 1.39536 43.5845 1.13882C42.9342 0.882284 42.2372 0.750244 41.5333 0.750244C40.8294 0.750244 40.1324 0.882284 39.4821 1.13882C38.8318 1.39536 38.241 1.77137 37.7433 2.24537L30.1972 9.42972L39.768 18.5462C40.8932 18.181 42.1033 18.1233 43.2611 18.3797C44.419 18.636 45.4782 19.1962 46.3187 19.9967C47.1632 20.8022 47.7529 21.8176 48.0203 22.927C48.2877 24.0364 48.2221 25.195 47.831 26.2706L57.0566 35.0575C58.1859 34.6837 59.4031 34.6205 60.5684 34.8754C61.7337 35.1303 62.7999 35.6928 63.6447 36.4984C64.2376 37.0619 64.7079 37.7311 65.0289 38.4678C65.3498 39.2045 65.515 39.9943 65.515 40.7919C65.515 41.5895 65.3498 42.3792 65.0289 43.116C64.7079 43.8527 64.2376 44.5219 63.6447 45.0854C63.0527 45.65 62.3495 46.0979 61.5755 46.4036C60.8014 46.7092 59.9717 46.8665 59.1338 46.8665C58.2958 46.8665 57.4661 46.7092 56.692 46.4036C55.918 46.0979 55.2148 45.65 54.6228 45.0854C53.7335 44.2376 53.1273 43.1584 52.8804 41.9834C52.6336 40.8084 52.7572 39.5902 53.2356 38.4819L44.631 30.2888V51.848C45.2556 52.1403 45.8257 52.528 46.3187 52.9958C47.5148 54.1353 48.1867 55.6804 48.1867 57.2915C48.1867 58.9025 47.5148 60.4476 46.3187 61.5871C43.8255 63.9575 39.7863 63.9575 37.3004 61.5871C36.7073 61.0234 36.2367 60.3538 35.9157 59.6167C35.5946 58.8796 35.4294 58.0894 35.4294 57.2915C35.4294 56.4935 35.5946 55.7033 35.9157 54.9662C36.2367 54.2291 36.7073 53.5596 37.3004 52.9958C37.8957 52.4256 38.6054 51.9752 39.3872 51.6715V29.9115C38.6054 29.6077 37.8957 29.1574 37.3004 28.5871C36.405 27.7351 35.796 26.6487 35.5508 25.4662C35.3055 24.2837 35.4352 23.0584 35.9233 21.9462L26.4876 12.9584L1.56983 36.6845C1.07188 37.1584 0.676867 37.721 0.407364 38.3403C0.13786 38.9595 -0.000854492 39.6233 -0.000854492 40.2936C-0.000854492 40.964 0.13786 41.6277 0.407364 42.247C0.676867 42.8663 1.07188 43.4289 1.56983 43.9028L37.9105 78.5054C38.4081 78.9794 38.999 79.3554 39.6492 79.6119C40.2995 79.8685 40.9965 80.0005 41.7004 80.0005C42.4043 80.0005 43.1013 79.8685 43.7516 79.6119C44.4019 79.3554 44.9927 78.9794 45.4904 78.5054L81.6639 44.0662C82.6695 43.1085 83.2345 41.8097 83.2345 40.4554C83.2345 39.1011 82.6695 37.8022 81.6639 36.8445Z" fill="#F03C2E"/>
</g>
</g>
<defs>
<clipPath id="clip0_183_479">
<rect width="200" height="80" fill="white"/>
</clipPath>
</defs>
</svg>
