<svg width="200" height="80" viewBox="0 0 200 80" fill="none" xmlns="http://www.w3.org/2000/svg">
<path d="M10.5 26.6333H20V36.1206H28.6883V26.6333H38.1883V55.3648H28.6883V45.7595H20V55.3648H10.5V26.6333ZM50.6783 36.1627H42.3V26.635H68.5267V36.1627H60.16V55.3681H50.66V36.1627H50.6783ZM72.69 26.6333H82.595L88.6883 36.7441L94.775 26.6333H104.667V55.3648H95.2067V41.122L88.6733 51.339H88.51L82 41.1237V55.3665H72.7067L72.69 26.6333ZM109.407 26.6333H118.907V45.8859H132.265V55.3833H109.408L109.407 26.6333Z" fill="black"/>
<path d="M136.783 16.0801H189.512L184.708 64.5301L163.117 69.9201L141.583 64.5376L136.783 16.0801Z" fill="#E44D26"/>
<path d="M180.6 56.3907L184.705 19.6013H163.167V60.26L180.6 56.3907Z" fill="#F16529"/>
<path d="M154.417 35.5706L153.813 30.1626H163.167V24.8826H146.617L148.397 40.8519H163.167V35.5719L154.417 35.5706ZM148.673 43.4932L149.598 51.7866L163.12 54.7892L163.15 54.7826V49.2892L163.122 49.2959L155.788 47.6959L155.318 43.4826H151.747L148.673 43.4932Z" fill="#EBEBEB"/>
<path d="M178.31 36.9867L178.472 35.5681H163.128V40.8481H171.257L170.49 47.6974L163.128 49.2867V54.7801L176.662 51.7801L176.762 50.8867L178.31 36.9867ZM163.143 30.1627H179.088L179.68 24.8694H163.143V30.1361V30.1627Z" fill="white"/>
</svg>
