<svg width="260" height="60" viewBox="0 0 260 60" fill="none" xmlns="http://www.w3.org/2000/svg">
<path d="M31.4166 24.068C27.8389 10.56 20.382 6.96399 18.4798 4.42199C17.6954 3.30218 17.0006 2.13818 16.4 0.937988C16.2995 2.13799 16.1149 2.89399 14.9231 3.80399C12.5302 5.62999 2.36726 12.718 1.51197 28.066C0.715105 42.376 13.8038 51.2 15.5331 52.112C16.8627 52.672 18.4822 52.124 19.272 51.61C25.5815 47.904 34.2021 38.024 31.4236 24.068" fill="#10AA50"/>
<path d="M16.9421 44.4919C16.6127 48.0339 16.3766 50.0919 15.54 52.1159C15.54 52.1159 16.0892 55.4879 16.4748 59.0599H17.8395C18.165 56.5446 18.6621 54.0477 19.3281 51.5819C17.5614 50.8379 17.0099 47.5999 16.9421 44.4919Z" fill="#B8C4C2"/>
<path d="M19.3258 51.5839C17.5404 50.8779 17.024 47.5719 16.9445 44.4919C17.386 39.4113 17.5148 34.3142 17.3301 29.2219C17.2366 26.5499 17.3745 4.47394 16.5613 1.24194C17.1176 2.33659 17.7585 3.39828 18.4798 4.41994C20.382 6.96394 27.8412 10.5599 31.4166 24.0679C34.2021 37.9999 25.6282 47.8539 19.3258 51.5839Z" fill="#12924F"/>
<path d="M254.646 46.7C253.882 46.6999 253.134 46.5064 252.498 46.1438C251.862 45.7812 251.365 45.2657 251.07 44.6621C250.775 44.0585 250.695 43.3937 250.84 42.7514C250.986 42.109 251.35 41.5178 251.886 41.052C252.423 40.5862 253.109 40.2666 253.857 40.1334C254.606 40.0003 255.384 40.0594 256.093 40.3035C256.802 40.5476 257.411 40.9657 257.844 41.5053C258.276 42.0448 258.512 42.6818 258.523 43.336C258.537 43.7771 258.447 44.2161 258.257 44.6265C258.068 45.037 257.784 45.4106 257.422 45.7247C257.06 46.0389 256.627 46.2872 256.15 46.4548C255.673 46.6224 255.162 46.7058 254.646 46.7ZM254.646 40.364C253.948 40.36 253.264 40.5336 252.68 40.8626C252.097 41.1917 251.641 41.6615 251.37 42.2125C251.1 42.7635 251.026 43.3709 251.159 43.9578C251.291 44.5448 251.625 45.0847 252.116 45.5094C252.608 45.9341 253.236 46.2243 253.92 46.3434C254.605 46.4625 255.315 46.405 255.961 46.1782C256.608 45.9515 257.161 45.5657 257.551 45.0697C257.941 44.5737 258.15 43.9898 258.151 43.392C258.161 42.9945 258.076 42.5996 257.904 42.2306C257.731 41.8615 257.474 41.5258 257.147 41.2435C256.82 40.9611 256.43 40.7378 256.001 40.5867C255.571 40.4356 255.111 40.3599 254.646 40.364ZM255.581 45.48L254.581 43.634H253.775V45.48H253.188V41.28H254.635C255.712 41.28 256.161 41.68 256.161 42.454C256.161 43.07 255.822 43.454 255.191 43.572L256.224 45.474L255.581 45.48ZM253.798 43.2H254.646C255.333 43.2 255.595 43 255.595 42.464C255.595 41.928 255.345 41.746 254.571 41.746H253.798V43.2Z" fill="#21313C"/>
<path d="M196.947 43.676C197.996 44.394 200.093 44.69 201.941 44.69C204.336 44.69 206.685 44.31 208.98 42.536C211.316 40.718 212.924 37.936 212.924 33.494C212.924 29.226 211.027 25.762 207.133 23.734C204.937 22.552 202.091 22.086 198.845 22.086C197.91 22.086 196.947 22.128 196.4 22.34C196.176 22.4915 196.017 22.7026 195.949 22.94C195.851 23.7 195.851 29.488 195.851 32.91C195.851 36.418 195.851 41.31 195.949 41.91C196.001 42.418 196.3 43.31 196.947 43.684M186.983 20.186C187.831 20.186 191.056 20.312 192.556 20.312C195.36 20.312 197.298 20.186 202.539 20.186C206.932 20.186 210.629 21.2 213.272 23.142C216.469 25.51 218.18 28.804 218.18 32.818C218.18 38.522 215.142 41.818 212.088 43.676C209.05 45.62 205.098 46.718 199.469 46.718C196.473 46.718 191.329 46.634 187.037 46.592H186.948C186.747 46.254 187.315 44.936 187.665 44.902C188.834 44.79 189.142 44.75 189.68 44.56C190.586 44.242 190.799 43.846 190.899 42.452C191.049 39.832 191 36.706 191 33.156C191 30.622 191.049 25.678 190.951 24.114C190.799 22.806 190.154 22.468 188.848 22.214C187.921 22.0456 186.985 21.9188 186.043 21.834C185.945 21.58 186.712 20.434 186.962 20.186" fill="#21313C"/>
<path d="M230.553 22.33C230.355 22.372 230.105 22.796 230.105 23.006C230.053 24.528 230.004 28.498 230.004 31.244C230.017 31.2965 230.047 31.3446 230.092 31.3823C230.136 31.4201 230.193 31.4457 230.254 31.456C230.902 31.498 232.5 31.542 233.848 31.542C235.746 31.542 236.844 31.33 237.442 31.076C239.041 30.4 239.779 28.92 239.779 27.316C239.779 23.64 236.783 22.246 232.341 22.246C231.74 22.2395 231.14 22.2676 230.544 22.33M241.878 39.23C241.878 35.512 238.681 33.4 232.839 33.4C232.591 33.4 230.736 33.358 230.294 33.442C230.144 33.484 229.995 33.568 229.995 33.654C229.995 36.316 229.943 40.582 230.095 42.272C230.196 42.99 230.796 44.004 231.542 44.3C232.341 44.68 234.138 44.764 235.386 44.764C238.83 44.764 241.878 43.118 241.878 39.23ZM221.533 20.26C221.984 20.26 223.311 20.386 226.707 20.386C229.901 20.386 232.498 20.302 235.587 20.302C239.431 20.302 244.722 21.486 244.722 26.386C244.722 28.786 242.726 30.738 240.13 31.668C239.98 31.71 239.98 31.794 240.13 31.836C243.824 32.636 247.068 34.582 247.068 38.3C247.068 41.934 244.423 44.216 240.578 45.652C238.242 46.54 235.337 46.834 232.399 46.834C230.154 46.834 224.134 46.634 220.788 46.666C220.437 46.54 221.108 45.186 221.407 44.976C222.174 44.9558 222.934 44.8537 223.671 44.672C224.868 44.42 225.01 44.09 225.16 42.568C225.26 41.258 225.26 36.568 225.26 33.23C225.26 28.666 225.312 25.584 225.26 24.062C225.211 22.88 224.711 22.498 223.762 22.288C223.015 22.16 221.767 22.034 220.769 21.908C220.519 21.696 221.288 20.428 221.535 20.26" fill="#21313C"/>
<path d="M42.4722 46.6999C42.3436 46.4295 42.2916 46.1369 42.3203 45.8459C42.3091 45.6476 42.3616 45.4505 42.4722 45.2759C43.1179 45.1962 43.7577 45.0847 44.3884 44.9419C45.2717 44.7539 45.6036 44.3419 45.655 43.3779C45.7999 41.0999 45.8092 36.8259 45.7578 33.8219V33.7339C45.7578 33.4099 45.7578 32.9699 45.2904 32.6599C44.469 32.2189 43.5771 31.882 42.6428 31.6599C42.2245 31.5539 41.9931 31.3659 42.0048 31.1459C42.0165 30.9259 42.2806 30.6659 42.825 30.5739C44.2716 30.4479 48.0619 29.6739 49.5505 29.0859C49.7038 29.2569 49.7748 29.4716 49.7491 29.6859C49.7491 29.8179 49.7258 29.9579 49.7094 30.1019C49.6673 30.5259 49.6206 31.0079 49.6206 31.4879C49.6298 31.5462 49.6577 31.6012 49.7014 31.6466C49.7451 31.6921 49.8027 31.7262 49.8678 31.7451C49.9329 31.764 50.0029 31.767 50.0699 31.7537C50.1368 31.7404 50.1981 31.7114 50.2469 31.6699C53.0815 29.7679 55.6216 29.0899 56.9233 29.0899C59.0661 29.0899 60.7346 29.9659 62.0269 31.7699C62.0566 31.8135 62.0988 31.8498 62.1495 31.8754C62.2003 31.9009 62.2578 31.9149 62.3167 31.9159C62.3702 31.9155 62.4228 31.904 62.47 31.8824C62.5172 31.8608 62.5576 31.8298 62.5878 31.7919C65.1934 30.0999 67.7756 29.0899 69.5048 29.0899C73.5896 29.0899 76.0317 31.7079 76.0317 36.0899C76.0317 37.3499 76.0176 38.9479 76.0036 40.4379C75.9919 41.7459 75.9802 42.9719 75.9802 43.8199C75.9802 44.0199 76.3027 44.5959 76.7865 44.7099C77.3847 44.9599 78.247 45.0879 79.3383 45.2479H79.3804C79.4621 45.4999 79.2892 46.4779 79.1233 46.6779C78.8522 46.6779 78.4783 46.6579 78.011 46.6379C77.1627 46.6019 75.9989 46.5519 74.6459 46.5519C71.9305 46.5519 70.512 46.5959 69.1567 46.6719C69.0538 46.3819 69.0188 45.4459 69.1426 45.2499C69.7039 45.1748 70.2595 45.0713 70.8065 44.9399C71.6711 44.6959 71.9211 44.3599 71.9749 43.3779C71.9959 42.6799 72.1525 36.5299 71.8744 35.0699C71.6174 33.5559 70.2853 31.7839 67.3713 31.7839C66.2893 31.7839 64.5437 32.1699 62.8799 33.2499C62.7767 33.3501 62.7187 33.4784 62.7163 33.6119V33.6419C62.9126 34.4299 62.9126 35.3499 62.9126 36.7399C62.9126 37.5399 62.9126 38.3739 62.9009 39.2079C62.8892 40.9039 62.8799 42.5039 62.9126 43.7139C62.9126 44.5379 63.4945 44.7359 63.9642 44.8939C64.2189 44.9419 64.4199 44.9839 64.6232 45.0239C65.0134 45.1059 65.42 45.1899 66.0253 45.2719C66.1149 45.6233 66.1069 45.9877 66.0019 46.3359C65.9771 46.4666 65.9171 46.5906 65.8266 46.6979C64.317 46.6539 62.7677 46.6159 60.5313 46.6159C59.8537 46.6159 58.7483 46.6399 57.7715 46.6619C56.9793 46.6799 56.2315 46.6979 55.8062 46.6999C55.6912 46.4676 55.64 46.2158 55.6567 45.9639C55.6328 45.7266 55.687 45.4883 55.8132 45.2759L56.4138 45.1819C56.9373 45.1019 57.3906 45.0339 57.8159 44.9419C58.5544 44.7419 58.8325 44.3979 58.8862 43.5919C59.0311 41.7119 59.1433 36.2939 58.8325 34.9379C58.3043 32.7619 56.8578 31.6579 54.5303 31.6579C53.1679 31.6579 51.4457 32.2199 50.0389 33.1219C49.9036 33.2347 49.797 33.3702 49.7258 33.5199C49.6546 33.6696 49.6204 33.8304 49.6253 33.9919C49.6253 34.6379 49.6253 35.4059 49.6253 36.2299C49.6253 38.9499 49.6042 42.3359 49.6814 43.7999C49.7281 44.2519 49.915 44.7879 50.9035 44.9839C51.1209 45.0379 51.4948 45.0899 51.9294 45.1519C52.1795 45.1879 52.4529 45.2259 52.7356 45.2699C52.8255 45.7489 52.7798 46.2393 52.6024 46.6999C52.1678 46.6999 51.6326 46.6759 51.0204 46.6539C50.0856 46.6179 48.9172 46.5739 47.5969 46.5739C46.0359 46.5739 44.9492 46.6179 44.0776 46.6539C43.4911 46.6779 42.984 46.6979 42.4769 46.6999" fill="#21313C"/>
<path d="M92.5859 30.8981C91.7425 30.8831 90.9129 31.0828 90.2023 31.4721C88.4684 32.3741 87.585 34.1761 87.585 36.8241C87.585 41.7801 90.4851 45.2421 94.6377 45.2421C95.7511 45.2723 96.8371 44.9432 97.6802 44.3201C98.9561 43.4301 99.6338 41.6101 99.6338 39.0621C99.6338 34.1801 96.7992 30.8981 92.5812 30.8981M93.3804 47.0801C85.8791 47.0801 83.2081 42.3701 83.2081 37.9641C83.2081 34.8861 84.678 32.4801 87.578 30.8101C89.6092 29.7338 91.9407 29.144 94.3292 29.1021C100.052 29.1021 104.05 32.6241 104.05 37.6701C104.05 41.0981 102.454 43.8061 99.4329 45.4981C97.9817 46.2581 95.4602 47.0801 93.3804 47.0801Z" fill="#21313C"/>
<path d="M168.954 30.8981C168.109 30.8817 167.277 31.0815 166.566 31.4721C164.832 32.3741 163.949 34.1761 163.949 36.8241C163.949 41.7801 166.849 45.2421 171.001 45.2421C172.118 45.2743 173.208 44.9451 174.053 44.3201C175.329 43.4301 176.004 41.6101 176.004 39.0621C176.004 34.1801 173.172 30.8981 168.954 30.8981ZM169.753 47.0801C162.252 47.0801 159.581 42.3701 159.581 37.9661C159.581 34.8841 161.051 32.4801 163.953 30.8101C165.983 29.7332 168.314 29.1433 170.702 29.1021C176.425 29.1021 180.423 32.6261 180.423 37.6681C180.423 41.1001 178.827 43.8061 175.806 45.4961C174.355 46.2581 171.833 47.0801 169.753 47.0801Z" fill="#21313C"/>
<path d="M143.697 30.7299C141.386 30.7299 139.891 32.2919 139.891 34.7099C139.891 37.1279 141.178 40.0019 144.798 40.0019C145.42 40.0019 146.546 39.7659 147.105 39.2399C147.946 38.5779 148.507 37.2099 148.507 35.7659C148.507 32.6119 146.712 30.7299 143.709 30.7299M143.41 47.4179C142.757 47.4118 142.113 47.5496 141.541 47.8179C139.711 48.8179 138.862 49.8179 138.862 50.9799C138.862 52.0679 139.356 52.9339 140.416 53.7019C141.702 54.6339 143.436 55.0879 145.714 55.0879C150.199 55.0879 152.208 53.0239 152.208 50.9799C152.208 49.5559 151.374 48.6019 149.656 48.0619C148.334 47.6479 146.123 47.4199 143.417 47.4199M143.716 57.2199C141.024 57.2199 139.084 56.7339 137.428 55.6419C135.815 54.5779 135.091 52.9979 135.091 51.9059C135.108 51.2022 135.422 50.5275 135.974 50.0059C136.442 49.5499 137.528 48.6959 140.04 47.2179C140.079 47.2038 140.112 47.1801 140.136 47.1498C140.159 47.1196 140.171 47.0842 140.171 47.0479C140.172 47.0075 140.157 46.9681 140.128 46.9361C140.099 46.9041 140.058 46.8815 140.012 46.8719C137.944 46.1939 137.32 45.0719 137.131 44.4719C137.131 44.4499 137.131 44.4159 137.11 44.3779C137.051 44.1419 136.995 43.9179 137.372 43.6879C137.661 43.5119 138.124 43.2759 138.619 43.0259C139.319 42.6946 139.99 42.321 140.627 41.9079C140.661 41.8764 140.686 41.8386 140.701 41.7974C140.716 41.7563 140.719 41.7128 140.711 41.6703C140.703 41.6278 140.683 41.5875 140.654 41.5524C140.625 41.5174 140.587 41.4885 140.543 41.4679C137.481 40.5879 135.939 38.6419 135.939 35.6679C135.93 34.7406 136.182 33.8249 136.674 32.9987C137.166 32.1725 137.884 31.4601 138.767 30.9219C139.998 30.0879 143.09 29.0859 145.093 29.0859H145.209C147.268 29.1279 148.43 29.4979 150.037 30.0059C150.952 30.289 151.921 30.4206 152.893 30.3939C154.596 30.3939 155.342 29.9319 155.982 29.3939C156.086 29.6363 156.141 29.8919 156.146 30.1499C156.185 30.7649 155.99 31.3741 155.59 31.8859C155.241 32.2999 154.421 32.5999 153.671 32.5999C153.594 32.5999 153.519 32.5999 153.437 32.5899C153.043 32.5662 152.651 32.5106 152.269 32.4239L152.077 32.4819C152.017 32.5579 152.056 32.6419 152.105 32.7499C152.117 32.7711 152.127 32.7932 152.133 32.8159C152.27 33.3497 152.363 33.891 152.412 34.4359C152.412 37.5459 150.979 38.8999 149.43 39.9039C147.932 40.8659 146.153 41.4555 144.289 41.6079C144.249 41.6079 144.055 41.6219 143.69 41.6499C143.457 41.6679 143.153 41.6919 143.109 41.6919H143.064C142.728 41.7719 141.849 42.1299 141.849 42.7959C141.849 43.3479 142.246 44.0339 144.146 44.1579L145.375 44.2319C147.88 44.3819 151.009 44.5679 152.482 44.9939C153.458 45.2878 154.302 45.8378 154.892 46.5657C155.482 47.2935 155.789 48.1621 155.77 49.0479C155.77 51.8379 153.451 54.4619 149.57 56.0659C147.739 56.8142 145.735 57.1991 143.707 57.1919" fill="#21313C"/>
<path d="M132.233 45.212C131.135 45.086 130.333 44.958 129.387 44.578C129.201 44.4133 129.079 44.204 129.036 43.978C128.936 42.668 128.936 38.866 128.936 36.378C128.936 34.348 128.538 32.578 127.533 31.308C126.335 29.87 124.638 29.026 122.441 29.026C120.495 29.026 117.899 30.166 115.753 31.73C115.702 31.772 115.373 32.04 115.38 31.624C115.387 31.208 115.461 30.364 115.508 29.824C115.529 29.6805 115.51 29.5349 115.453 29.3988C115.396 29.2626 115.303 29.1398 115.181 29.04C113.779 29.64 109.846 30.44 108.39 30.562C107.329 30.738 107.06 31.612 108.194 31.914H108.21C109.117 32.1281 109.983 32.4542 110.781 32.882C111.229 33.178 111.18 33.6 111.18 33.938C111.229 36.768 111.229 41.12 111.08 43.486C111.031 44.416 110.729 44.754 109.93 44.924L110.005 44.902C109.396 45.0325 108.779 45.1314 108.156 45.198C107.906 45.408 107.906 46.634 108.156 46.888C108.656 46.888 111.194 46.762 113.297 46.762C116.19 46.762 117.688 46.888 118.438 46.888C118.74 46.592 118.838 45.452 118.639 45.198C117.948 45.1712 117.262 45.0862 116.59 44.944C115.793 44.776 115.592 44.436 115.543 43.678C115.445 41.69 115.445 37.466 115.445 34.592C115.445 33.792 115.693 33.41 115.992 33.192C116.99 32.432 118.639 31.926 120.086 31.926C121.488 31.926 122.423 32.306 123.124 32.812C123.94 33.4218 124.452 34.2766 124.554 35.2C124.753 36.8 124.701 40.018 124.701 42.8C124.701 44.322 124.554 44.704 123.904 44.872C123.605 44.998 122.806 45.126 121.857 45.21C121.558 45.464 121.656 46.646 121.857 46.9C123.154 46.9 124.661 46.774 126.849 46.774C129.595 46.774 131.343 46.9 132.041 46.9C132.34 46.604 132.441 45.5 132.242 45.21" fill="#21313C"/>
</svg>
