<svg width="200" height="80" viewBox="0 0 200 80" fill="none" xmlns="http://www.w3.org/2000/svg">
<g clip-path="url(#clip0_183_517)">
<path d="M0 72.6703H6.58887V52.6447L16.7891 70.1086C17.9922 72.2139 19.6406 72.9703 22.8711 72.9703C26.1016 72.9703 27.6855 72.2222 28.8906 70.1086L39.0918 52.6447V72.6778H45.6816V52.6778C45.6816 50.7267 44.666 49.7831 42.5762 49.2959C37.5713 48.0929 34.2129 49.1335 32.6934 51.735L22.6836 68.9703L12.9883 51.7274C11.5313 49.1259 8.11035 48.0853 3.10547 49.2883C1.01367 49.7763 0 50.7199 0 52.6703V72.6703ZM51.1582 56.365H57.7451V67.4026C57.6836 68.0026 57.9951 69.4101 61.6045 69.453C63.4463 69.4756 75.8174 69.453 75.9326 69.453V56.3101H82.5342C82.5635 56.3101 82.5273 74.2305 82.5283 74.3071C82.5645 78.7267 75.4053 79.6868 72.1064 79.7613H51.3018V76.3477L72.1436 76.347C76.3838 76.0011 75.8838 74.3793 75.8838 73.8327V72.5019H61.8799C55.3643 72.4568 51.2158 70.2665 51.1641 67.7477C51.1592 67.5222 51.3047 56.4733 51.1602 56.3643L51.1582 56.365Z" fill="#00618A"/>
<path d="M87.6133 72.6703H106.557C108.773 72.6703 110.929 72.3132 112.641 71.6944C115.492 70.6869 116.886 69.3207 116.886 67.532V63.8252C116.886 62.3613 115.302 60.9959 112.198 60.0854C110.551 59.5967 108.523 59.3373 106.56 59.3373H98.5762C95.916 59.3373 94.6484 58.7192 94.332 57.3538C94.2686 57.1914 94.2685 57.053 94.2685 56.8982V54.5899C94.2685 54.4598 94.2686 54.329 94.332 54.1666C94.6484 53.126 95.3457 52.8327 97.6894 52.6628C97.8799 52.6628 98.1328 52.6297 98.3242 52.6297H117.141V49.2485H98.6406C95.9795 49.2485 94.5859 49.3786 93.3184 49.6711C89.3867 50.6147 87.6758 52.1185 87.6758 54.72V57.6794C87.6758 59.9561 91.0351 61.9072 96.6719 62.3621C97.3066 62.3944 97.9395 62.4267 98.5723 62.4267H105.415C105.669 62.4267 105.923 62.4267 106.112 62.4598C108.202 62.5899 109.091 62.8824 109.724 63.4673C110.114 63.7681 110.231 64.0538 110.231 64.3696V67.329C110.231 67.6869 109.915 68.1425 109.281 68.532C108.711 68.923 107.761 69.1824 106.493 69.2478C106.239 69.2478 106.05 69.2801 105.797 69.2801H87.6133V72.6621V72.6703ZM157.988 66.7846C157.988 70.2643 161.346 72.2155 168.125 72.6057C168.757 72.6434 169.391 72.6649 170.025 72.6703H187.195V69.2884H169.898C166.034 69.2884 164.576 68.5403 164.576 66.7515V49.2553H157.987V66.7831L157.988 66.7846ZM121.089 66.9606V54.9042C121.089 51.841 123.882 49.9831 129.405 49.3967C129.994 49.3319 130.589 49.2992 131.184 49.2989H143.69C144.307 49.2992 144.922 49.3319 145.532 49.3967C151.056 49.9831 153.849 51.8403 153.849 54.9042V66.9606C153.849 69.4455 152.662 70.7756 149.928 71.6425L156.418 76.1538H148.768L143.517 72.5042L138.23 72.7621H131.184C129.978 72.7621 128.708 72.6312 127.311 72.338C123.111 71.4583 121.089 69.7636 121.089 66.9606ZM128.201 66.6598C128.201 66.823 128.265 66.9854 128.328 67.1816C128.719 68.5831 130.423 69.3651 133.016 69.3651H139.002L133.504 65.5433H141.154L145.939 68.8764C146.823 68.5139 147.404 67.9591 147.6 67.247C147.663 67.0846 147.663 66.9215 147.663 66.7583V55.1982C147.663 55.0681 147.663 54.8974 147.6 54.7418C147.209 53.4388 145.504 52.6891 142.965 52.6891H133.027C130.098 52.6891 128.203 53.6666 128.203 55.1982V66.6688L128.201 66.6598Z" fill="#E48E00"/>
<path d="M192.992 43.6446C188.942 43.5604 185.848 43.8499 183.203 44.7085C182.451 44.9529 181.253 44.9589 181.13 45.6845C181.543 46.0176 181.608 46.5153 181.936 46.9251C182.567 47.7123 183.635 48.7672 184.585 49.3191C185.624 49.9228 186.694 50.5694 187.811 51.0935C189.793 52.0243 192.006 52.5559 193.914 53.4875C195.039 54.0364 196.156 54.7281 197.254 55.3491C197.796 55.6559 198.162 56.1326 198.865 56.3243V56.2356C198.494 55.8724 198.399 55.3732 198.06 54.995L196.562 53.8424C195.098 52.3386 193.24 51.0326 191.265 49.9401C189.689 49.0694 186.163 47.8935 185.506 46.4815L185.391 46.3928C186.508 46.295 187.815 45.9845 188.848 45.7725C190.579 45.4153 192.127 45.507 193.916 45.1522L196.335 44.6198V44.2649C195.431 43.5506 194.786 42.6055 193.801 41.9597C191.223 40.2679 188.407 38.58 185.51 37.1702C183.902 36.3882 181.916 35.8815 180.212 35.2191C179.639 34.9965 178.632 34.8807 178.254 34.5093C177.359 33.6311 176.872 32.5168 176.182 31.5018C174.736 29.3589 173.316 27.0176 172.035 24.7627C171.161 23.2251 170.59 21.7085 169.502 20.3288C164.272 13.7093 158.643 9.71381 149.924 5.78749C148.068 4.9529 145.835 4.62208 143.474 4.19125L139.673 4.0138C138.899 3.76568 138.095 3.03636 137.368 2.68298C134.479 1.27696 127.07 -1.77792 124.931 2.23185C123.58 4.76794 126.949 7.24238 128.155 8.52809C129.001 9.43035 130.085 10.4401 130.688 11.4544C131.086 12.1206 131.155 12.789 131.495 13.4943C132.332 15.2236 133.061 17.1206 134.144 18.7258C134.69 19.5379 135.294 20.3935 135.986 21.1198C136.411 21.5657 137.139 21.7619 137.253 22.4506C136.542 23.2176 136.501 24.4055 136.101 25.377C134.301 29.7469 134.979 35.1777 137.598 38.4123C138.401 39.4048 140.293 41.5341 142.895 40.7176C145.171 40.0033 144.653 37.7928 145.314 35.8409C145.461 35.3973 145.371 35.074 145.66 34.777V34.8657L147.733 38.0574C149.267 39.9597 151.991 41.9484 154.298 43.2905C155.494 43.986 156.446 45.189 157.983 45.5958V45.507H157.868C157.568 45.1461 157.1 44.998 156.716 44.71C155.814 44.0296 154.811 43.1837 154.066 42.4048C151.967 40.2108 150.113 37.8108 148.424 35.3108C147.617 34.1176 146.915 32.801 146.236 31.5867C145.975 31.1183 145.978 30.4108 145.431 30.1679C144.686 31.0582 143.588 31.777 143.012 32.8281C142.09 34.5078 141.971 36.5559 141.63 38.6807C141.428 38.7364 141.518 38.698 141.399 38.7694C139.796 38.4717 139.231 37.2003 138.636 36.1093C137.128 33.3499 136.849 28.9093 138.175 25.7349C138.517 24.9138 140.069 22.3258 139.441 21.5672C139.142 20.81 138.152 20.3642 137.599 19.7928C136.915 19.0785 136.229 18.1356 135.756 17.31C134.521 15.1597 133.945 12.7461 132.646 10.5709C132.025 9.53185 130.977 8.48072 130.113 7.56343C129.158 6.54087 128.089 5.78599 127.35 4.55591C127.086 4.11606 126.728 3.41305 127.119 2.95967C127.156 2.82941 127.241 2.71007 127.364 2.61575C127.486 2.52143 127.641 2.45605 127.811 2.42734C128.478 2.0311 130.34 2.55892 131.035 2.78223C132.881 3.3732 134.424 3.93561 135.988 4.73335C136.74 5.10929 137.499 5.85817 138.406 6.06418H139.441C141.062 6.3514 142.879 6.15441 144.393 6.50779C147.07 7.13411 149.469 8.10929 151.648 9.16794C158.287 12.395 163.714 16.989 167.427 22.4762C168.024 23.3582 168.282 24.201 168.809 25.1364C169.87 27.0161 171.207 28.9657 172.264 30.8108C173.318 32.6529 174.344 34.51 175.834 36.0424C176.617 36.8469 179.643 37.28 181.017 37.7266C181.98 38.0401 183.559 38.3672 184.472 38.7905C186.215 39.6003 187.904 40.5649 189.54 41.4522C190.357 41.8958 192.87 42.8679 192.995 43.6687L192.992 43.6446Z" fill="#00618A"/>
<path fill-rule="evenodd" clip-rule="evenodd" d="M141.514 9.86112C140.669 9.84909 140.072 9.9318 139.44 10.0386V10.1273H139.556C139.958 10.7649 140.669 11.1747 141.167 11.7235L142.319 13.5852L142.435 13.4965C143.147 13.1092 143.475 12.4904 143.47 11.5453C143.184 11.3138 143.142 11.0235 142.894 10.7468C142.564 10.3784 141.917 10.1694 141.512 9.85962L141.514 9.86112Z" fill="#00618A"/>
<path fill-rule="evenodd" clip-rule="evenodd" d="M190.288 69.1922C190.288 71.4253 192.58 72.9305 195.144 72.9305C197.707 72.9305 199.999 71.4253 199.999 69.1922C199.999 66.9591 197.707 65.4539 195.144 65.4539C192.58 65.4539 190.288 66.9591 190.288 69.1922ZM198.911 69.1922C198.911 70.8869 197.229 72.1531 195.142 72.1531C193.032 72.1531 191.372 70.8869 191.372 69.1922C191.372 67.4975 193.03 66.2313 195.142 66.2313C197.227 66.2313 198.911 67.4975 198.911 69.1922ZM196.45 71.326H197.537L195.945 69.4524C196.8 69.3824 197.446 69.0629 197.446 68.2854C197.446 67.4178 196.733 67.0599 195.362 67.0599H193.199V71.3268H194.132V69.4824H194.999L196.449 71.3268L196.45 71.326ZM194.132 68.8824V67.6569H195.206C195.763 67.6569 196.437 67.7366 196.437 68.2358C196.437 68.8336 195.828 68.8839 195.128 68.8839H194.132V68.8824Z" fill="#E48E00"/>
</g>
<defs>
<clipPath id="clip0_183_517">
<rect width="200" height="80" fill="white"/>
</clipPath>
</defs>
</svg>
