<svg width="260" height="60" viewBox="0 0 260 60" fill="none" xmlns="http://www.w3.org/2000/svg">
<path d="M69.9465 30.193H60.5182V18.523H70.4583C74.0967 18.523 75.9159 20.498 75.9159 24.449C75.9159 28.279 73.9253 30.195 69.9465 30.195M76.7227 18.387C75.4227 16.963 73.623 16.251 71.3001 16.251L57.798 16.343V44.263H60.5182L60.4938 32.377H70.5412C73.06 32.377 75.0441 31.665 76.4912 30.241C77.9382 28.817 78.6622 26.841 78.6622 24.314C78.6622 21.787 78.0162 19.812 76.7243 18.387H76.7227ZM94.3312 38.4C94.0711 39.3133 93.6268 40.1305 93.0402 40.775C91.8214 42.239 89.9624 42.97 87.4615 42.97C85.2028 42.97 83.4705 42.27 82.2615 40.836C81.0525 39.402 80.4472 37.509 80.4472 35.123C80.4472 33.881 80.6057 32.778 80.9217 31.816C81.2378 30.854 81.6968 30.042 82.2981 29.38C83.5493 27.977 85.2702 27.275 87.4624 27.275C92.3179 27.275 94.7464 29.891 94.7464 35.123C94.7464 36.366 94.6083 37.458 94.3402 38.4M94.8333 28.1C93.1758 26.24 90.7221 25.3 87.4705 25.3C84.3992 25.3 82.0251 26.25 80.3513 28.15C78.8401 29.87 78.0763 32.19 78.0763 35.112C78.0763 38.012 78.8563 40.352 80.4163 42.132C81.2776 43.092 82.281 43.788 83.4275 44.218C84.5739 44.648 85.9186 44.863 87.4624 44.863C90.6961 44.863 93.1498 43.943 94.8496 42.103C96.3608 40.423 97.1246 38.103 97.1246 35.111C97.1246 32.111 96.3608 29.771 94.8333 28.089V28.1ZM115.404 39.207C115.404 42.965 112.669 44.844 107.198 44.844C105.526 44.844 104.117 44.714 102.973 44.452C101.829 44.19 100.899 43.757 100.184 43.154C99.6332 42.695 99.1816 42.0771 98.869 41.354C98.544 40.614 98.3328 39.684 98.2353 38.554L100.781 38.524C100.781 40.004 101.226 41.092 102.117 41.792C103.074 42.632 104.766 43.052 107.198 43.052C111.022 43.052 112.934 41.872 112.934 39.514C112.934 38.134 112.284 37.186 111.01 36.664C110.75 36.564 109.204 36.299 106.379 35.87C103.554 35.441 101.78 35.055 101.083 34.715C99.5735 33.975 98.8187 32.645 98.8187 30.727C98.8187 28.847 99.493 27.447 100.85 26.529C101.516 26.149 102.349 25.855 103.349 25.644C104.349 25.433 105.507 25.329 106.823 25.329C112.09 25.329 114.723 27.363 114.723 31.429H112.302C112.302 28.569 110.45 27.129 106.749 27.129C104.865 27.129 103.46 27.429 102.535 27.999C101.61 28.569 101.147 29.469 101.147 30.669C101.147 31.789 101.773 32.599 103.023 33.099C103.754 33.359 105.434 33.659 108.065 33.999C110.42 34.259 112.036 34.629 112.912 35.099C114.586 35.899 115.421 37.259 115.421 39.176L115.404 39.207ZM125.403 44.3L124.367 44.48L123.721 44.54C122.063 44.54 120.877 44.245 120.135 43.653C119.394 43.061 119.036 42.026 119.036 40.553V27.798H116.025V25.924H119.021L119.045 19.904H121.366V25.924H125.407V27.828L121.366 27.798V40.195C121.366 41.118 121.565 41.755 121.963 42.095C122.361 42.435 123.071 42.621 124.095 42.621C124.241 42.641 124.403 42.635 124.582 42.601C124.853 42.5416 125.122 42.4662 125.387 42.375L125.411 44.275L125.403 44.3ZM141.454 40.07C140.82 40.71 140.099 41.198 139.287 41.54C138.475 41.882 137.542 42.04 136.487 42.04C131.633 42.04 129.207 39.573 129.207 34.64C129.207 32.343 129.828 30.545 131.07 29.246C132.312 27.947 134.06 27.298 136.317 27.298C138.59 27.298 140.315 27.953 141.491 29.261C142.668 30.569 143.257 32.323 143.257 34.521C143.257 36.918 142.655 38.766 141.455 40.064M145.578 25.929H143.258L143.233 29.079C142.209 27.799 141.478 26.992 141.039 26.652C139.739 25.772 138.059 25.334 135.996 25.334C132.975 25.334 130.668 26.184 129.077 27.882C127.566 29.442 126.812 31.699 126.812 34.656C126.812 36.116 127.003 37.418 127.385 38.556C127.766 39.694 128.324 40.679 129.056 41.478C130.65 43.116 132.903 43.936 135.816 43.936C139.313 43.936 141.793 42.759 143.258 40.404V43.664C143.258 45.744 142.726 47.352 141.663 48.492C140.599 49.632 138.849 50.192 136.412 50.192C134.121 50.192 132.489 49.792 131.515 49.028C130.784 48.431 130.28 47.396 130.004 45.923H127.615C127.875 47.98 128.59 49.468 129.728 50.386C131.06 51.444 133.303 51.973 136.472 51.973C142.533 51.973 145.572 49.2 145.572 43.653V25.937L145.578 25.929ZM158.131 27.782C157.432 27.642 156.784 27.582 156.184 27.582C152.37 27.582 150.463 30.157 150.463 35.305V44.259H148.167L148.142 25.937L150.464 25.965V29.235H150.585C150.975 27.947 151.593 26.97 152.436 26.305C153.361 25.661 154.741 25.339 156.575 25.339H158.133V27.799L158.131 27.782ZM160.29 33.94C160.582 31.858 161.241 30.246 162.262 29.104C162.928 28.444 163.684 27.947 164.527 27.617C165.371 27.287 166.315 27.121 167.377 27.121C169.44 27.121 171.115 27.817 172.431 29.209C173.747 30.601 174.391 32.179 174.391 33.939L160.29 33.94ZM174.617 28.287C173.804 27.284 172.797 26.543 171.594 26.061C170.392 25.579 168.994 25.339 167.369 25.339C164.363 25.339 162.031 26.199 160.372 27.919C158.713 29.639 157.886 31.979 157.886 34.941C157.886 37.903 158.682 40.241 160.275 41.991C161.997 43.911 164.418 44.871 167.561 44.871C168.812 44.871 169.968 44.696 171.033 44.348C172.097 44 173.028 43.506 173.823 42.868C175.22 41.633 176.104 40.108 176.48 38.298H173.971C173.11 41.431 170.967 42.998 167.541 42.998C165.121 42.998 163.261 42.232 161.963 40.7C160.842 39.387 160.283 37.686 160.283 35.596H176.828C176.828 32.488 176.096 30.051 174.609 28.296L174.617 28.287Z" fill="#231F20"/>
<path d="M201.354 36.776C201.354 42.216 197.789 44.936 190.66 44.936C186.388 44.936 183.27 43.999 181.305 42.136C179.697 40.596 178.894 38.248 178.894 35.088H181.764C181.764 40.166 184.729 42.705 190.659 42.705C193.503 42.705 195.558 42.185 196.834 41.147C197.906 40.229 198.443 38.79 198.443 36.833C198.443 34.895 197.711 33.537 196.249 32.757C195.42 32.337 193.405 31.807 190.179 31.169C186.133 30.409 183.51 29.651 182.308 28.892C180.569 27.772 179.708 25.875 179.708 23.198C179.708 20.701 180.439 18.843 181.926 17.624C183.519 16.286 186.249 15.616 190.114 15.616C197.102 15.616 200.596 18.472 200.596 24.184H197.701C197.701 19.904 195.106 17.766 189.919 17.766C187.316 17.766 185.413 18.196 184.21 19.066C183.071 19.986 182.504 21.336 182.504 23.116C182.504 24.976 183.235 26.286 184.697 27.046C185.477 27.486 187.769 28.096 191.571 28.876C195.146 29.536 197.559 30.306 198.802 31.176C200.509 32.256 201.362 34.126 201.362 36.776H201.354ZM224.672 39.552C223.6 40.609 222.388 41.402 221.038 41.932C219.689 42.462 218.176 42.725 216.501 42.725C213.085 42.725 210.326 41.592 208.219 39.327C206.111 37.062 205.06 34.043 205.06 30.27C205.06 26.338 206.104 23.274 208.194 21.078C210.284 18.882 213.053 17.785 216.5 17.785C219.997 17.785 222.745 18.933 224.746 21.228C225.802 22.348 226.582 23.654 227.087 25.151C227.593 26.648 227.843 28.355 227.843 30.271C227.843 34.183 226.785 37.277 224.671 39.551M226.197 41.403C227.692 40.105 228.798 38.533 229.514 36.685C230.23 34.837 230.588 32.705 230.588 30.287C230.588 25.952 229.418 22.487 227.078 19.859C225.827 18.421 224.316 17.352 222.545 16.653C220.773 15.954 218.75 15.603 216.475 15.603C212.055 15.603 208.594 16.923 206.075 19.558C203.556 22.193 202.297 25.77 202.297 30.285C202.297 34.679 203.568 38.225 206.11 40.921C208.652 43.617 212.125 44.966 216.526 44.966C218.249 44.966 219.75 44.823 221.033 44.536C222.316 44.249 223.406 43.809 224.3 43.216L228.539 46.833L230.31 44.831L226.205 41.404L226.197 41.403ZM252.075 44.26H232.456V16.3L235.152 16.24V41.917H252.091L252.067 44.251L252.075 44.26Z" fill="#367FAF"/>
<path d="M39.1926 39.567C39.4656 37.197 39.3835 36.849 41.076 37.233L41.5066 37.273C42.8082 37.335 44.5104 37.055 45.5106 36.57C47.6637 35.528 48.9394 33.788 46.8171 34.245C41.9746 35.287 41.6415 33.575 41.6415 33.575C46.7545 25.66 48.8922 15.612 47.0479 13.152C42.0063 6.44501 33.3044 9.61701 33.15 9.70001L33.1037 9.71001C32.1466 9.50301 31.0757 9.38001 29.8732 9.36001C27.6819 9.32201 26.0195 9.96001 24.7577 10.957C24.7577 10.957 9.21786 4.27701 9.94098 19.357C10.0954 22.565 14.3488 43.63 19.4212 37.267C21.2754 34.94 23.0677 32.973 23.0677 32.973C24.0024 33.6172 25.0724 33.9021 26.1398 33.791L26.2259 33.714C26.1991 34.004 26.2097 34.284 26.2609 34.62C24.9544 36.143 25.3379 36.41 22.7249 36.972C20.0818 37.54 21.6345 38.552 22.6485 38.817C23.8778 39.137 26.7215 39.592 28.6431 36.787L28.5667 37.107C29.0786 37.535 29.0445 40.182 29.1176 42.074C29.1907 43.966 29.3126 45.731 29.6815 46.772C30.0504 47.813 30.4875 50.492 33.9211 49.726C36.7909 49.084 38.9854 48.161 39.1861 39.571" fill="#231F20"/>
<path d="M39.1926 39.567C39.4656 37.197 39.3835 36.849 41.076 37.233L41.5066 37.273C42.8082 37.335 44.5104 37.055 45.5106 36.57C47.6637 35.528 48.9394 33.788 46.8171 34.245C41.9746 35.287 41.6415 33.575 41.6415 33.575C46.7545 25.66 48.8922 15.612 47.0479 13.152C42.0063 6.44501 33.3044 9.61701 33.15 9.70001L33.1037 9.71001C32.1466 9.50301 31.0757 9.38001 29.8732 9.36001C27.6819 9.32201 26.0195 9.96001 24.7577 10.957C24.7577 10.957 9.21786 4.27701 9.94098 19.357C10.0954 22.565 14.3488 43.63 19.4212 37.267C21.2754 34.94 23.0677 32.973 23.0677 32.973C24.0024 33.6172 25.0724 33.9021 26.1398 33.791L26.2259 33.714C26.1991 34.004 26.2097 34.284 26.2609 34.62C24.9544 36.143 25.3379 36.41 22.7249 36.972C20.0818 37.54 21.6345 38.552 22.6485 38.817C23.8778 39.137 26.7215 39.592 28.6431 36.787L28.5667 37.107C29.0786 37.535 29.0445 40.182 29.1176 42.074C29.1907 43.966 29.3126 45.731 29.6815 46.772C30.0504 47.813 30.4875 50.492 33.9211 49.726C36.7909 49.084 38.9854 48.161 39.1861 39.571" stroke="#231F20" stroke-width="4.108"/>
<path d="M46.8162 34.244C41.9737 35.286 41.6406 33.574 41.6406 33.574C46.7536 25.658 48.8913 15.61 47.047 13.151C42.0143 6.44401 33.3043 9.617 33.15 9.7L33.1028 9.71001C32.1457 9.50301 31.0748 9.38 29.8715 9.36C27.6802 9.323 26.0178 9.96 24.7568 10.957C24.7568 10.957 9.21615 4.27701 9.93927 19.357C10.0936 22.565 14.3463 43.631 19.4195 37.267C21.2736 34.94 23.0652 32.973 23.0652 32.973C23.9999 33.6172 25.0699 33.9021 26.1373 33.791L26.2242 33.714C26.1974 34.004 26.2096 34.284 26.2591 34.62C24.9526 36.143 25.3361 36.41 22.7248 36.972C20.0809 37.54 21.6344 38.552 22.6484 38.817C23.8777 39.137 26.7215 39.592 28.643 36.787L28.5666 37.107C29.0785 37.535 29.4385 39.89 29.3791 42.027C29.3198 44.164 29.2784 45.627 29.6822 46.773C30.086 47.919 30.4882 50.493 33.9235 49.727C36.7932 49.085 38.2809 47.423 38.4873 44.649C38.6335 42.677 38.9666 42.969 38.987 41.206L39.2535 40.372C39.5606 37.699 39.3022 36.837 41.0702 37.238L41.5008 37.278C42.8025 37.34 44.5055 37.06 45.5048 36.575C47.658 35.533 48.9336 33.793 46.8113 34.25L46.8162 34.244Z" fill="#417BA2"/>
<path d="M28.8583 35.777C28.7251 40.75 28.8908 45.759 29.358 46.977C29.8252 48.195 30.8238 50.562 34.259 49.794C37.1288 49.152 38.1728 47.91 38.6254 45.168C38.9504 43.151 39.6028 37.548 39.6849 36.401M24.7406 10.843C24.7406 10.843 9.18119 4.21296 9.91244 19.3C10.0749 22.508 14.3194 43.574 19.3943 37.2C21.2484 34.873 22.9246 33.048 22.9246 33.048M33.1499 9.63296C32.6113 9.80896 41.8006 6.12896 47.0226 13.09C48.8669 15.55 46.7301 25.598 41.6162 33.514" stroke="white" stroke-width="1.369" stroke-linecap="round" stroke-linejoin="round"/>
<path d="M41.6081 33.5129C41.6081 33.5129 41.9331 35.2229 46.7837 34.1809C48.906 33.7239 47.6287 35.4639 45.4756 36.5069C43.7092 37.3619 39.7491 37.5809 39.6849 36.3999C39.5184 33.3499 41.769 34.2769 41.6065 33.5129C41.4602 32.8249 40.4527 32.1499 39.7865 30.4659C39.2056 28.9959 31.8159 17.7239 41.8356 19.3979C42.2029 19.3179 39.2218 9.45392 29.8431 9.29392C20.4644 9.13392 20.7756 21.3239 20.7756 21.3239" stroke="white" stroke-width="1.369" stroke-linecap="round" stroke-linejoin="bevel"/>
<path d="M26.234 34.5559C24.9259 36.0789 25.311 36.3459 22.698 36.9079C20.0542 37.4779 21.6077 38.4879 22.6217 38.7529C23.851 39.0729 26.6947 39.5279 28.6163 36.7209C29.2013 35.8659 28.613 34.5009 27.8095 34.1549C27.4211 33.9869 26.9019 33.7769 26.2332 34.5549L26.234 34.5559Z" stroke="white" stroke-width="1.369" stroke-linejoin="round"/>
<path d="M26.1487 34.5299C26.0171 33.6339 26.4306 32.5699 26.8742 31.3219C27.5405 29.4519 29.0777 27.5799 27.8492 21.6449C26.9327 17.2219 20.7829 20.7249 20.7805 21.3249C20.7781 21.9249 21.0584 24.3649 20.6773 27.2049C20.1801 30.9129 22.9385 34.0479 26.1146 33.7279" stroke="white" stroke-width="1.369" stroke-linecap="round" stroke-linejoin="round"/>
<path d="M24.6853 21.2329C24.6577 21.4379 25.0453 21.9829 25.5498 22.0569C26.0544 22.1309 26.4842 21.7029 26.5127 21.4989C26.5411 21.2949 26.1535 21.0689 25.6482 20.9949C25.1428 20.9209 24.7122 21.0289 24.6853 21.2329Z" fill="white" stroke="white" stroke-width="0.456"/>
<path d="M40.0343 20.8159C40.062 21.0209 39.6752 21.5659 39.1698 21.6399C38.6645 21.7139 38.2338 21.2859 38.2062 21.0799C38.1786 20.8739 38.5662 20.6499 39.0707 20.5759C39.5753 20.5019 40.0051 20.6089 40.0335 20.8139L40.0343 20.8159Z" fill="white" stroke="white" stroke-width="0.228"/>
<path d="M41.838 19.3979C41.9209 21.0049 41.5065 22.0979 41.4537 23.8099C41.3765 26.2959 42.5896 29.1399 40.7615 31.9899" stroke="white" stroke-width="1.369" stroke-linecap="round" stroke-linejoin="round"/>
</svg>
