<svg width="180" height="80" viewBox="0 0 180 80" fill="none" xmlns="http://www.w3.org/2000/svg">
<path d="M89.3145 27.5494H97.9095V27.7987C98.5095 27.5667 99.132 27.372 99.7725 27.228C100.415 27.084 101.075 27.0123 101.737 27.0147C103.18 27.0147 104.523 27.264 105.765 27.7454C107.007 28.2267 108.09 28.8854 108.99 29.7227C109.912 30.56 110.613 31.54 111.135 32.656C111.657 33.772 111.897 34.9534 111.897 36.2027C111.911 37.4216 111.659 38.6314 111.156 39.7654C110.676 40.8519 109.961 41.844 109.051 42.6854C108.151 43.5214 107.067 44.152 105.826 44.6454C104.586 45.1387 103.221 45.3574 101.739 45.3574C100.951 45.3625 100.165 45.291 99.3945 45.144C98.6745 45.0014 97.9695 44.8054 97.2945 44.5387V48.368H101.062V52.9987H88.23V48.368H91.455V32.144H89.331V27.5467L89.3145 27.5494ZM101.317 31.7C100.526 31.6952 99.7493 31.8864 99.0735 32.252C98.3534 32.6424 97.7486 33.1799 97.3095 33.82V38.7534C97.724 39.3378 98.2957 39.8212 98.973 40.16C99.6946 40.5192 100.51 40.7032 101.337 40.6934C101.972 40.6981 102.6 40.5826 103.18 40.3547C103.761 40.1414 104.26 39.8214 104.703 39.428C105.123 39.036 105.483 38.5547 105.723 38.0014C105.984 37.4365 106.113 36.8306 106.104 36.22C106.104 35.508 105.984 34.8667 105.723 34.3134C105.503 33.7777 105.155 33.2909 104.703 32.8867C104.273 32.4963 103.754 32.1926 103.18 31.996C102.6 31.8 101.977 31.6934 101.317 31.6934V31.7ZM125.947 27.5494H135.265V40.4294H137.665V45.06H129.31V43.564C128.62 44.111 127.817 44.5343 126.946 44.8107C126.046 45.096 125.002 45.256 123.82 45.256C122.77 45.2589 121.726 45.1024 120.735 44.7934C119.794 44.4988 118.934 44.0313 118.21 43.4214C117.49 42.816 116.928 42.032 116.527 41.1054C116.107 40.1787 115.906 39.1054 115.906 37.8454V32.1627H113.356V27.5334H122.056V37.8467C122.056 39.0227 122.397 39.8947 123.058 40.4827C123.739 41.0694 124.603 41.356 125.683 41.356C126.445 41.356 127.126 41.1427 127.747 40.732C128.368 40.3214 128.809 39.752 129.09 39.0387V32.1814H125.964L125.947 27.5494ZM154.147 44.1494C153.445 44.5054 152.722 44.7734 152.023 44.9334C151.324 45.0934 150.58 45.1654 149.859 45.1654C148.336 45.1654 146.934 44.9334 145.65 44.472C144.366 44.0107 143.25 43.368 142.323 42.548C141.385 41.7188 140.642 40.7315 140.139 39.644C139.612 38.4905 139.347 37.2557 139.359 36.0107C139.359 34.7814 139.599 33.6107 140.1 32.5374C140.586 31.4743 141.301 30.5059 142.204 29.6867C143.104 28.8667 144.189 28.2267 145.429 27.7454C146.692 27.2654 148.054 27.0334 149.517 27.0147C150.353 27.0201 151.186 27.1037 152.002 27.264C152.732 27.4158 153.444 27.6306 154.126 27.9054V27.532H159.898V44.3294C159.898 45.796 159.618 47.0894 159.037 48.1587C158.502 49.1857 157.723 50.0973 156.753 50.8307C155.772 51.5528 154.633 52.0866 153.408 52.3987C152.145 52.7374 150.802 52.9147 149.418 52.9147C147.693 52.9147 146.091 52.7014 144.628 52.2907C143.236 51.9086 141.918 51.3379 140.721 50.5987L143.121 46.8387C144.007 47.3407 144.964 47.7361 145.966 48.0147C146.986 48.3 148.131 48.4414 149.392 48.4414C150.073 48.4414 150.715 48.3707 151.276 48.2454C151.857 48.1027 152.356 47.8894 152.779 47.568C153.202 47.2467 153.541 46.8214 153.781 46.268C154.021 45.7347 154.141 45.0387 154.141 44.22V44.1494H154.147ZM150.037 40.48C150.888 40.4909 151.724 40.2805 152.442 39.8747C153.162 39.4827 153.724 38.948 154.146 38.2747L154.186 34.0174C153.745 33.3054 153.166 32.7507 152.422 32.324C151.694 31.9194 150.856 31.6978 149.997 31.6827C149.376 31.7 148.774 31.808 148.173 32.0214C147.571 32.2347 147.051 32.52 146.628 32.912C146.187 33.304 145.848 33.7494 145.585 34.2654C145.323 34.7814 145.204 35.3694 145.204 35.9987C145.204 36.676 145.324 37.2814 145.585 37.8334C145.825 38.3543 146.172 38.8312 146.607 39.24C147.027 39.632 147.549 39.9174 148.129 40.1307C148.735 40.3476 149.382 40.4563 150.034 40.4507L150.037 40.48Z" fill="#4D4D4D"/>
<path d="M67.7545 32.4122C67.6393 30.1579 67.9851 28.1599 66.8324 26.4692C64.0658 22.2682 57.1495 19.8091 43.3169 19.8091C29.4842 19.8091 22.2221 22.2682 19.4556 26.5205C18.3605 28.2624 18.4758 30.2092 18.3028 32.4634C18.1876 34.2565 17.2654 36.1521 17.6689 38.2014C18.1299 40.8654 18.3028 43.5295 18.7639 45.9886C19.1098 47.9867 22.2221 49.6773 22.5103 51.5729C23.3172 56.7986 29.4266 59.2065 43.2592 59.2065V59.6163H42.9711H43.3169V59.2065C57.1495 59.2065 63.0284 56.7986 63.7777 51.5729C64.0658 49.6261 66.9476 47.9867 67.2934 45.9886C67.7545 43.5295 67.9274 40.8654 68.3885 38.2014C68.792 36.1521 67.8698 34.2053 67.7545 32.4122Z" fill="#EFCCA3"/>
<path d="M43.0863 34.2563C45.5647 34.3076 47.2938 35.6908 48.9076 36.9716C50.8096 38.4574 54.0372 39.482 55.3628 40.7628C56.6884 42.0436 58.4175 43.3244 59.0515 45.3225C59.6855 47.3205 59.8584 49.8821 59.8584 50.5481C59.8584 51.2141 60.2619 51.0604 61.4146 50.5481C64.1235 49.3698 67.1206 46.1934 67.1206 46.1934C66.7747 48.1915 63.8353 49.9846 63.5471 51.8802C62.8555 57.1058 57.1495 59.6162 43.0287 59.6162H42.9711H43.3169" fill="#CCAC8D"/>
<path d="M52.1928 30.2604C52.7115 31.8485 54.5559 37.2279 50.9824 35.4348C50.9824 35.4348 52.481 36.2033 53.4031 39.1235C54.3829 42.0437 56.746 42.4023 56.746 42.4023C56.746 42.4023 60.6076 43.0684 63.4894 40.8654C65.9101 39.021 66.3136 35.7422 65.2761 33.2318C64.2387 30.7727 62.3943 30.0042 59.6855 29.4919C56.9766 28.9283 51.5588 28.4672 52.1928 30.2604Z" fill="#CCAC8D"/>
<path d="M59.0516 40.6094C61.8528 40.6094 64.1235 38.5909 64.1235 36.1009C64.1235 33.611 61.8528 31.5925 59.0516 31.5925C56.2504 31.5925 53.9796 33.611 53.9796 36.1009C53.9796 38.5909 56.2504 40.6094 59.0516 40.6094Z" fill="black"/>
<path d="M57.7259 35.2812C58.458 35.2812 59.0515 34.7537 59.0515 34.1029C59.0515 33.4521 58.458 32.9246 57.7259 32.9246C56.9938 32.9246 56.4003 33.4521 56.4003 34.1029C56.4003 34.7537 56.9938 35.2812 57.7259 35.2812Z" fill="white"/>
<path d="M51.3284 35.896C51.3284 35.896 55.8816 38.6625 58.36 41.3778C60.8383 44.0931 60.7807 44.6054 60.7807 44.6054L58.994 45.3227C58.994 45.3227 56.458 41.0704 53.3456 39.4822C50.1756 37.894 49.8298 36.562 49.8298 36.562L51.3284 35.896Z" fill="#EFCCA3"/>
<path d="M43.2592 34.2566C40.7808 34.3078 38.9365 35.6911 37.2651 36.9719C35.3631 38.4576 32.0202 39.4823 30.6945 40.7631C29.3689 42.0439 27.5822 43.3247 26.9482 45.3227C26.3142 47.3208 26.0837 49.8824 26.0837 50.5484C26.0837 51.2144 26.1989 51.2656 24.5275 50.5484C21.8186 49.4213 18.8215 46.1936 18.8215 46.1936C19.1673 48.1917 22.1068 49.9848 22.395 51.8804C23.2019 57.1061 28.9078 59.6164 43.0287 59.6164H43.3168" fill="#CCAC8D"/>
<path d="M56.6308 42.9147C53.8643 39.892 49.4263 37.0742 43.2593 37.0742H43.2016C37.0346 37.0742 32.5966 39.892 29.8301 42.9147C26.9483 46.0398 27.1788 47.2694 27.1788 50.2408C27.1788 60.9996 31.4439 57.9256 34.2681 59.2577C37.1499 60.5385 40.1469 60.1286 43.2016 60.1286H43.2593C46.3716 60.1286 49.3111 60.4872 52.1929 59.2064C55.017 57.9256 59.2821 61.102 59.2821 50.3433C59.3397 47.3719 59.5126 46.0398 56.6308 42.9147Z" fill="#56332B"/>
<path d="M42.9711 39.7383C42.9711 39.7383 42.5676 44.7078 41.7607 45.6812L43.2593 45.3738L42.9711 39.7383Z" fill="#442823"/>
<path d="M43.3746 39.7383C43.3746 39.7383 43.7781 44.7078 44.585 45.6812L43.0864 45.3738L43.3746 39.7383Z" fill="#442823"/>
<path d="M38.5332 38.56C37.9568 37.3816 40.0317 35.486 43.317 35.4348C46.6022 35.4348 48.6771 37.3304 48.1007 38.56C47.5244 39.7895 45.4495 40.1482 43.317 40.1994C41.2421 40.1482 39.1095 39.7895 38.5332 38.56Z" fill="#56332B"/>
<path d="M43.3169 39.7383C43.3169 39.5334 45.2766 39.4821 46.314 38.8673C46.314 38.8673 44.1815 39.4821 43.7204 39.226C43.2593 39.021 43.144 38.4062 43.144 38.4062C43.144 38.4062 42.9711 39.021 42.6253 39.226C42.2219 39.4309 39.8011 38.8673 39.8011 38.8673L43.0288 39.7383C43.0288 39.892 42.9711 40.4043 42.9711 40.7629L43.2017 45.4763C43.5475 45.9374 43.4322 42.0437 43.4322 40.7629L43.3169 39.7383Z" fill="black"/>
<path d="M43.4322 46.6033C44.412 46.6033 46.1411 47.2181 47.6973 48.1915C46.1988 46.7058 44.412 45.6812 43.4322 45.6812C42.3948 45.6812 40.2046 46.8083 38.6484 48.4477C40.2622 47.3206 42.3371 46.6033 43.4322 46.6033Z" fill="#7F4A41" stroke="#4D4D4D" stroke-width="1.59805" stroke-miterlimit="10"/>
<path d="M43.0287 55.6714C40.8386 55.6714 38.706 55.0566 36.7464 54.5956C36.343 54.4931 35.9395 54.7493 35.5361 54.6468C31.905 53.6221 28.9655 51.8803 27.1788 49.6773V50.1896C27.1788 60.9483 31.4439 57.9256 34.2681 59.2064C37.1499 60.4872 40.1469 60.0774 43.2016 60.0774H43.2593C46.3716 60.0774 49.3111 60.436 52.1929 59.1552C55.017 57.8744 59.2821 60.9996 59.2821 50.2408C59.2821 49.831 59.2821 49.4211 59.3397 49.0625C57.6683 51.4704 54.6136 53.366 50.8096 54.4931C50.4638 54.5956 49.6569 54.3394 49.3111 54.3906C47.2362 55.0054 45.3918 55.6714 43.0287 55.6714Z" fill="#442823"/>
<path d="M37.5533 49.8823C37.5533 49.8823 36.1124 53.7247 37.0922 55.4154L35.7666 54.9031C35.7666 54.9031 36.7464 51.0094 37.5533 49.8823ZM48.9652 49.8823C48.9652 49.8823 50.4061 53.7247 49.4263 55.4154L50.752 54.9031C50.752 54.9031 49.7145 51.0094 48.9652 49.8823Z" fill="#442823"/>
<path d="M33.8646 30.2604C33.3459 31.8485 31.5015 37.2279 35.075 35.4348C35.075 35.4348 33.5764 36.2033 32.6543 39.1235C31.7321 42.0437 29.3114 42.4023 29.3114 42.4023C29.3114 42.4023 25.4498 43.0684 22.568 40.8654C20.1472 39.021 19.7438 35.7422 20.7812 33.2318C21.8187 30.7214 23.663 30.0042 26.3719 29.4919C29.0808 28.9283 34.441 28.4672 33.8646 30.2604Z" fill="#CCAC8D"/>
<path d="M43.2593 45.6813C44.8155 45.6813 49.6569 48.6528 49.7145 52.2903V52.0853C49.7145 48.2942 45.7953 45.2715 43.2593 45.2715C40.7233 45.2715 36.8041 48.3454 36.8041 52.0853V52.2903C36.8617 48.6528 41.7031 45.6813 43.2593 45.6813Z" fill="black"/>
<path d="M44.5174 38.588C44.764 38.5315 44.8672 38.1526 44.748 37.7416C44.6288 37.3306 44.3322 37.0433 44.0856 37.0998C43.839 37.1563 43.7358 37.5353 43.855 37.9463C43.9743 38.3572 44.2708 38.6446 44.5174 38.588Z" fill="#331712"/>
<path d="M41.5549 38.5804C41.7981 38.6474 42.11 38.3732 42.2514 37.9678C42.3929 37.5625 42.3104 37.1795 42.0672 37.1124C41.824 37.0453 41.5121 37.3196 41.3707 37.7249C41.2292 38.1303 41.3117 38.5133 41.5549 38.5804Z" fill="#331712"/>
<path d="M27.2941 40.6094C30.0953 40.6094 32.3661 38.5909 32.3661 36.1009C32.3661 33.611 30.0953 31.5925 27.2941 31.5925C24.493 31.5925 22.2222 33.611 22.2222 36.1009C22.2222 38.5909 24.493 40.6094 27.2941 40.6094Z" fill="black"/>
<path d="M28.6198 35.2812C29.3519 35.2812 29.9454 34.7537 29.9454 34.1029C29.9454 33.4521 29.3519 32.9246 28.6198 32.9246C27.8877 32.9246 27.2942 33.4521 27.2942 34.1029C27.2942 34.7537 27.8877 35.2812 28.6198 35.2812Z" fill="white"/>
<path d="M44.7578 36.152C44.7578 36.1007 43.4322 36.6643 43.0864 36.7155C42.7405 36.6643 41.4149 36.1007 41.4149 36.152H44.7578Z" fill="#7F4A41" stroke="#4D4D4D" stroke-width="1.59805" stroke-miterlimit="10"/>
<path d="M34.6717 35.896C34.6717 35.896 30.1184 38.6625 27.6401 41.3778C25.1617 44.0931 25.2194 44.6054 25.2194 44.6054L27.0061 45.3227C27.0061 45.3227 29.5421 41.0704 32.6544 39.4822C35.7667 37.894 36.1702 36.562 36.1702 36.562L34.6717 35.896Z" fill="#EFCCA3"/>
<path d="M24.7006 27.6989C24.7006 27.6989 23.1444 31.49 19.6863 33.0782C19.6863 33.0782 25.1041 32.5147 24.7006 27.6989ZM61.0689 27.6989C61.0689 27.6989 62.6251 31.49 66.0833 33.0782C66.0833 33.0782 60.6655 32.5147 61.0689 27.6989ZM51.2132 34.7689C51.2132 34.7689 47.8127 31.5925 43.2594 31.49C43.2018 31.49 43.3747 31.49 43.317 31.49C43.2594 31.49 43.3747 31.49 43.3747 31.49C38.7638 31.5925 35.4209 34.7689 35.4209 34.7689C39.3978 32.3098 42.7983 32.361 43.3747 32.361C43.317 32.361 47.2363 32.3098 51.2132 34.7689ZM47.2363 28.1087C47.2363 28.1087 45.5072 25.957 43.2018 25.9058H43.317C41.588 25.957 39.3402 28.1087 39.3402 28.1087C41.2998 26.4181 43.317 26.4693 43.317 26.4693C43.317 26.4693 45.219 26.4181 47.2363 28.1087ZM27.2942 43.837C27.2942 43.837 24.5853 45.0153 22.6257 44.298H22.5681C20.839 43.4271 19.9745 40.8143 19.9745 40.8143C19.9745 40.8143 21.7035 45.4252 27.2942 43.837ZM58.8788 43.837C58.8788 43.837 61.5877 45.0153 63.5473 44.298C65.8527 43.4271 66.1985 40.8143 66.1985 40.8143C66.1985 40.8143 64.4695 45.4252 58.8788 43.837ZM30.4066 27.4427C31.9051 27.1866 34.3835 27.1353 36.3431 27.6989C38.8214 28.4674 36.8042 31.2851 37.3229 31.4388C37.8416 31.5925 38.5333 29.492 43.1441 29.6969C47.8126 29.9019 48.3314 31.7462 48.9654 31.4388C49.5994 31.1314 48.3314 26.3156 55.3053 27.4427C55.3053 27.4427 47.9856 25.7008 48.3314 30.4142C48.3314 30.4142 44.1239 27.5452 38.2451 30.1068C38.3027 30.1068 39.8012 25.7008 30.4066 27.4427ZM55.9393 27.4427C56.0546 27.4427 56.1122 27.494 56.1699 27.494C56.2275 27.494 56.1122 27.4427 55.9393 27.4427Z" fill="#CCAC8D"/>
<path d="M28.3893 21.1411C28.3893 21.1411 22.1646 28.1087 21.2425 30.7727C20.3203 33.488 19.6286 44.6054 18.8217 46.1936L15.9399 35.2299L21.2425 23.8052L28.3893 21.1411ZM57.6684 21.1411C57.6684 21.1411 63.8931 28.1087 64.8153 30.7727C65.7375 33.488 66.4291 44.6054 67.236 46.1936L70.1178 35.2299L64.8153 23.8052L57.6684 21.1411Z" fill="#CCAC8D"/>
<path d="M57.3802 21.141C57.3802 21.141 64.0659 26.1105 66.0256 31.8485C67.9852 37.5865 67.1783 44.5541 68.6768 45.425C70.8094 46.6546 73.2301 39.3284 74.037 38.5599C75.305 37.3304 79.5124 34.2052 79.8006 33.6416C80.0887 33.0781 71.2704 24.5224 67.4088 22.8317C62.7403 20.8849 56.9767 20.7312 57.3802 21.141Z" fill="#56332B"/>
<path d="M63.0861 24.2151C63.0861 24.2151 70.9822 33.1807 70.8669 44.3493L74.0369 38.6113C73.9793 38.6113 71.2127 31.2851 63.0861 24.2151Z" fill="#442823"/>
<path d="M28.3892 21.141C28.3892 21.141 21.7034 26.1105 19.7438 31.8485C17.7842 37.5865 18.5911 44.5541 17.0926 45.425C14.96 46.6546 12.5393 39.3284 11.7324 38.5599C10.4644 37.3304 6.25699 34.2052 5.96881 33.6416C5.68063 33.0781 14.4989 24.5224 18.3606 22.8317C23.0291 20.8849 28.7927 20.7312 28.3892 21.141Z" fill="#56332B"/>
<path d="M22.6832 24.2151C22.6832 24.2151 14.7871 33.1807 14.9024 44.3493L11.79 38.6113C11.79 38.6113 14.5566 31.2851 22.6832 24.2151Z" fill="#442823"/>
<path d="M18.4182 44.5543C18.4182 44.5543 18.9946 47.3208 19.9167 48.1917C20.8389 49.0627 20.2049 47.5257 20.2049 47.5257C20.2049 47.5257 19.2251 47.0646 19.398 43.5296C19.5709 39.9946 18.4182 44.5543 18.4182 44.5543ZM67.5817 44.5543C67.5817 44.5543 67.0054 47.3208 66.0832 48.1917C65.161 49.0627 65.795 47.5257 65.795 47.5257C65.795 47.5257 66.7748 47.0646 66.6019 43.5296C66.429 39.9946 67.5817 44.5543 67.5817 44.5543Z" fill="#CCAC8D"/>
<path d="M37.2652 42.8634C37.5198 42.8634 37.7263 42.6799 37.7263 42.4536C37.7263 42.2272 37.5198 42.0437 37.2652 42.0437C37.0105 42.0437 36.8041 42.2272 36.8041 42.4536C36.8041 42.6799 37.0105 42.8634 37.2652 42.8634Z" fill="#442823"/>
<path d="M34.6139 45.3226C34.8686 45.3226 35.075 45.1391 35.075 44.9128C35.075 44.6864 34.8686 44.5029 34.6139 44.5029C34.3593 44.5029 34.1528 44.6864 34.1528 44.9128C34.1528 45.1391 34.3593 45.3226 34.6139 45.3226Z" fill="#442823"/>
<path d="M33.7494 42.8634C34.0041 42.8634 34.2105 42.6799 34.2105 42.4536C34.2105 42.2272 34.0041 42.0437 33.7494 42.0437C33.4948 42.0437 33.2883 42.2272 33.2883 42.4536C33.2883 42.6799 33.4948 42.8634 33.7494 42.8634Z" fill="#442823"/>
<path d="M48.5042 42.8634C48.7588 42.8634 48.9653 42.6799 48.9653 42.4536C48.9653 42.2272 48.7588 42.0437 48.5042 42.0437C48.2495 42.0437 48.0431 42.2272 48.0431 42.4536C48.0431 42.6799 48.2495 42.8634 48.5042 42.8634Z" fill="#442823"/>
<path d="M51.1555 45.3226C51.4102 45.3226 51.6166 45.1391 51.6166 44.9128C51.6166 44.6864 51.4102 44.5029 51.1555 44.5029C50.9009 44.5029 50.6945 44.6864 50.6945 44.9128C50.6945 45.1391 50.9009 45.3226 51.1555 45.3226Z" fill="#442823"/>
<path d="M52.02 42.8634C52.2747 42.8634 52.4811 42.6799 52.4811 42.4536C52.4811 42.2272 52.2747 42.0437 52.02 42.0437C51.7654 42.0437 51.559 42.2272 51.559 42.4536C51.559 42.6799 51.7654 42.8634 52.02 42.8634Z" fill="#442823"/>
</svg>
