<svg width="220" height="80" viewBox="0 0 220 80" fill="none" xmlns="http://www.w3.org/2000/svg">
<path d="M47.7405 54.8659C51.2596 54.8659 54.1124 51.9888 54.1124 48.4397C54.1124 44.8905 51.2596 42.0134 47.7405 42.0134C44.2214 42.0134 41.3687 44.8905 41.3687 48.4397C41.3687 51.9888 44.2214 54.8659 47.7405 54.8659Z" fill="#00D8FF"/>
<path fill-rule="evenodd" clip-rule="evenodd" d="M47.7409 35.374C56.296 35.374 64.2434 36.6121 70.2358 38.6926C77.4557 41.1995 81.8949 44.9992 81.8949 48.4399C81.8949 52.0253 77.1903 56.062 69.437 58.6528C63.5753 60.6114 55.8618 61.6338 47.7409 61.6338C39.4146 61.6338 31.5301 60.6741 25.6024 58.6312C18.1028 56.046 13.5857 51.957 13.5857 48.4399C13.5857 45.0271 17.8241 41.2567 24.9426 38.7537C30.9573 36.6388 39.101 35.374 47.7397 35.374H47.7409Z" stroke="#00D8FF" stroke-width="1.66272"/>
<path fill-rule="evenodd" clip-rule="evenodd" d="M36.4627 41.9441C40.7367 34.4699 45.7703 28.145 50.5511 23.9491C56.3111 18.8936 61.7926 16.9138 64.7478 18.6324C67.8277 20.4236 68.9446 26.5506 67.2966 34.6184C66.0519 40.7181 63.0755 47.9676 59.0184 55.0626C54.8587 62.337 50.0957 68.7459 45.3801 72.9029C39.413 78.1636 33.6441 80.0673 30.623 78.3102C27.6916 76.6065 26.5706 71.019 27.9769 63.5493C29.1651 57.2379 32.147 49.4913 36.4613 41.944L36.4627 41.9441Z" stroke="#00D8FF" stroke-width="1.66272"/>
<path fill-rule="evenodd" clip-rule="evenodd" d="M36.4736 55.083C32.1876 47.6173 29.2694 40.0589 28.0514 33.7863C26.5851 26.2286 27.6218 20.4501 30.5744 18.7265C33.6511 16.93 39.4723 19.0139 45.5797 24.4831C50.1974 28.6181 54.9391 34.8381 59.008 41.9264C63.1796 49.1937 66.3061 56.5564 67.5224 62.7526C69.0614 70.5938 67.8158 76.585 64.7976 78.3471C61.8691 80.057 56.51 78.2467 50.7957 73.2873C45.9675 69.0973 40.802 62.6229 36.4736 55.0829V55.083Z" stroke="#00D8FF" stroke-width="1.66272"/>
<path fill-rule="evenodd" clip-rule="evenodd" d="M118.47 61.6239L110.66 49.0377C114.607 48.6661 118.164 45.6154 118.164 40.042C118.164 34.3708 114.391 30.7412 109.098 30.7412H97.4746V61.6004H101.075V49.3389H106.845L114.218 61.6004L118.47 61.6239ZM108.667 45.985H101.077V34.187H108.667C112.095 34.187 114.437 36.5923 114.437 40.0635C114.437 43.5347 112.094 45.9889 108.667 45.9889V45.985ZM131.873 62.1773C135.302 62.1773 138.12 60.9746 140.202 58.755L138.64 56.4865C136.99 58.2915 134.563 59.3085 132.178 59.3085C127.668 59.3085 124.89 55.7923 124.63 51.5839H141.588V50.7039C141.588 43.9962 137.857 38.72 131.523 38.72C125.537 38.72 121.202 43.9493 121.202 50.4262C121.202 57.4135 125.669 62.1597 131.872 62.1597L131.873 62.1773ZM138.382 49.0357H124.632C124.806 45.6135 127.015 41.585 131.485 41.585C136.257 41.585 138.338 45.7034 138.382 49.0357ZM163.194 61.6219V46.2608C163.194 40.8477 159.509 38.7181 155.083 38.7181C151.655 38.7181 148.967 39.9207 146.712 42.42L148.23 44.8254C150.095 42.6977 152.135 41.7258 154.651 41.7258C157.687 41.7258 159.944 43.4369 159.944 46.4446V50.4692C158.251 48.3865 155.866 47.4146 153.003 47.4146C149.446 47.4146 145.669 49.775 145.669 54.7715C145.669 59.6292 149.442 62.1753 153.003 62.1753C155.822 62.1753 158.209 61.1115 159.944 59.0757V61.618L163.194 61.6219ZM154.174 59.6781C151.138 59.6781 149.011 57.6442 149.011 54.8204C149.011 51.9515 151.138 49.9158 154.174 49.9158C156.473 49.9158 158.684 50.8407 159.944 52.6927V56.9031C158.686 58.7531 156.473 59.6781 154.174 59.6781ZM178.924 62.1773C182.741 62.1773 184.996 60.5111 186.602 58.2915L184.433 56.1639C183.045 58.1527 181.267 59.0777 179.117 59.0777C174.649 59.0777 171.875 55.3758 171.875 50.4262C171.875 45.4766 174.651 41.8216 179.117 41.8216C181.285 41.8216 183.064 42.7016 184.433 44.7354L186.602 42.6077C184.998 40.3862 182.741 38.722 178.924 38.722C172.678 38.722 168.47 43.8124 168.47 50.4281C168.47 57.0908 172.678 62.1617 178.924 62.1617V62.1773ZM196.451 62.1773C198.357 62.1773 199.531 61.575 200.356 60.7439L199.402 58.1527C198.968 58.6612 198.119 59.0777 197.19 59.0777C195.76 59.0777 195.063 57.875 195.063 56.2088V42.3281H199.316V39.2754H195.063V33.1681H191.809V39.2754H188.338V42.33H191.809V56.952C191.809 60.2843 193.371 62.1812 196.451 62.1812V62.1773Z" fill="#00D8FF"/>
</svg>
