<svg width="260" height="60" viewBox="0 0 260 60" fill="none" xmlns="http://www.w3.org/2000/svg">
<path fill-rule="evenodd" clip-rule="evenodd" d="M83.2877 28.9476H78.9647V38.9307C78.9647 41.6055 80.4458 41.5578 83.2877 41.4145V45.4746C77.4837 46.2866 75.2022 44.376 75.2022 38.9784V28.9954H72V24.6487H75.2022V19.0601L78.9647 17.7227V24.6487H83.2877V28.9476ZM99.7788 24.6009H103.541V45.4269H99.7788V42.4177C98.4579 44.6148 96.3765 45.9523 93.6546 45.9523C88.8914 45.9523 84.9688 41.1757 84.9688 35.0138C84.9688 28.8044 88.9314 24.0756 93.6546 24.0756C96.3765 24.0756 98.4579 25.4129 99.7788 27.5624V24.6009ZM94.2551 41.7012C97.4172 41.7012 99.7788 38.9307 99.7788 35.0138C99.7788 31.1449 97.4172 28.3266 94.2551 28.3266C91.133 28.3266 88.7313 31.0971 88.7313 35.0138C88.7313 38.9307 91.133 41.7012 94.2551 41.7012ZM109.826 21.4962C108.505 21.4962 107.424 20.1587 107.424 18.6302C107.424 17.054 108.505 15.7642 109.826 15.7642C111.146 15.7642 112.227 17.054 112.227 18.6302C112.267 20.1587 111.146 21.4962 109.826 21.4962ZM107.944 45.4269V24.6009H111.707V45.4269H107.944ZM116.07 45.4269V15H119.832V45.4269H116.07ZM144.328 24.6009H148.292L142.808 45.4269H139.126L135.483 31.3838L131.8 45.4269H128.118L122.634 24.6009H126.596L130 38.9784L133.682 24.6009H137.284L140.926 38.9784L144.328 24.6009ZM153.014 21.4962C151.694 21.4962 150.613 20.1587 150.613 18.6302C150.613 17.054 151.694 15.7642 153.014 15.7642C154.336 15.7642 155.416 17.054 155.416 18.6302C155.416 20.1587 154.336 21.4962 153.014 21.4962ZM151.094 45.4269V24.6009H154.856V45.4269H151.094ZM168.425 24.0756C172.348 24.0756 175.15 27.228 175.15 32.6734V45.4746H171.387V33.1032C171.387 29.9508 169.866 28.2789 167.464 28.2789C164.982 28.2789 163.021 30.0463 163.021 34.2975V45.4746H159.259V24.6487H163.021V27.3237C164.183 25.1264 166.063 24.0756 168.425 24.0756ZM193.002 16.2897H196.764V45.4746H193.002V42.4654C191.681 44.6626 189.599 46 186.877 46C182.114 46 178.191 41.2234 178.191 35.0617C178.191 28.8521 182.155 24.1233 186.877 24.1233C189.599 24.1233 191.681 25.4608 193.002 27.6101V16.2897ZM187.518 41.7012C190.68 41.7012 193.042 38.9307 193.042 35.0138C193.042 31.1449 190.68 28.3266 187.518 28.3266C184.395 28.3266 181.994 31.0971 181.994 35.0138C181.994 38.9307 184.356 41.7012 187.518 41.7012ZM209.412 46C204.129 46 200.207 41.2234 200.207 35.0617C200.207 28.8521 204.169 24.1233 209.412 24.1233C212.855 24.1233 215.817 26.225 217.218 29.5209L213.976 31.7659C213.215 29.8074 211.494 28.5655 209.412 28.5655C206.33 28.5655 204.009 31.336 204.009 35.1095C204.009 38.8829 206.33 41.6533 209.412 41.6533C211.494 41.6533 213.215 40.3637 214.055 38.4531L217.299 40.6503C215.817 43.8505 212.855 46 209.412 46ZM223.503 30.3806C223.503 34.1541 232.908 31.8614 232.908 39.5994C232.908 43.755 229.867 46 226.104 46C222.621 46 220.1 44.1371 218.979 41.1279L222.221 38.8829C222.781 40.7458 224.182 41.8922 226.104 41.8922C227.785 41.8922 229.066 41.2234 229.066 39.5517C229.066 35.826 219.659 37.9276 219.659 30.4761C219.659 26.5594 222.501 24.1233 226.064 24.1233C228.946 24.1233 231.307 25.6995 232.509 28.47L229.346 30.5716C228.706 28.9476 227.505 28.1834 226.064 28.1834C224.703 28.1356 223.503 28.8521 223.503 30.3806ZM239.593 30.3806C239.593 34.1541 249 31.8614 249 39.5994C249 43.755 245.957 46 242.194 46C238.713 46 236.191 44.1371 235.07 41.1279L238.312 38.8829C238.873 40.7458 240.274 41.8922 242.194 41.8922C243.877 41.8922 245.157 41.2234 245.157 39.5517C245.157 35.826 235.751 37.9276 235.751 30.4761C235.751 26.5594 238.593 24.1233 242.155 24.1233C245.037 24.1233 247.399 25.6995 248.599 28.47L245.436 30.5716C244.797 28.9476 243.595 28.1834 242.155 28.1834C240.793 28.1356 239.593 28.8521 239.593 30.3806Z" fill="#020024"/>
<path fill-rule="evenodd" clip-rule="evenodd" d="M31 15C23.0161 15 17.9839 18.5746 16.0001 25.681C19 22.1063 22.4838 20.7712 26.5001 21.6756C28.7742 22.1924 30.4194 23.6568 32.2098 25.2934C35.1613 27.9637 38.5484 31.0215 46 31.0215C53.9839 31.0215 59.0162 27.4468 61 20.3405C58 23.9151 54.5162 25.2502 50.5001 24.3459C48.2259 23.829 46.5807 22.3647 44.7904 20.7281C41.8388 18.0579 38.4516 15 31 15ZM16.0001 30.9785C8.01615 30.9785 2.98388 34.5531 1 41.6595C4.00001 38.0848 7.48384 36.7496 11.5 37.6541C13.7742 38.1709 15.4194 39.6353 17.2096 41.2719C20.1613 43.9421 23.5484 47 31 47C38.9839 47 44.0162 43.4253 46 36.319C43 39.8936 39.5161 41.2287 35.5 40.3244C33.2258 39.8075 31.5807 38.3432 29.7903 36.7066C26.8388 34.0794 23.4516 30.9785 16.0001 30.9785Z" fill="#06B6D4"/>
</svg>
