<svg width="260" height="60" viewBox="0 0 260 60" fill="none" xmlns="http://www.w3.org/2000/svg">
<mask id="mask0_183_597" style="mask-type:luminance" maskUnits="userSpaceOnUse" x="0" y="0" width="260" height="60">
<path d="M260 0.857178H0V59.1429H260V0.857178Z" fill="white"/>
</mask>
<g mask="url(#mask0_183_597)">
<path d="M32.428 14.8491H18.9709V43.5801H13.4865V14.8491H0.0244141V11.4707H32.428V14.8491ZM57.849 20.6253L42.4675 47.2518C39.7608 51.9984 35.9165 54.3474 30.93 54.3474C29.508 54.3474 28.3655 54.2496 27.5123 54.0542V50.7734C28.6498 51.0666 29.7213 51.1643 30.6455 51.1643C33.3523 51.1643 35.3478 50.037 36.6988 47.8346L39.3343 43.479L26.3748 20.5764H32.2858L41.33 38.1948C41.401 38.4391 41.6853 38.9766 41.9698 39.9573H42.112C42.183 39.6153 42.4675 39.0779 42.7518 38.2437L52.2225 20.573H57.849V20.6253ZM66.5378 40.2052H66.3955V54.0576H61.0533V20.5764H66.3955V24.5901H66.5378C69.1733 21.5572 73.0175 19.9902 78.0753 19.9902C82.346 19.9902 85.6975 21.0163 88.1148 23.0231C90.4658 25.0788 91.7455 27.8186 91.7455 31.2948C91.7455 35.1619 90.3238 38.1948 87.617 40.4949C84.9103 42.795 81.2085 43.9223 76.506 43.9223C72.3065 44.1211 68.96 42.7984 66.5378 40.2052ZM66.4665 31.0015V34.2335C66.4665 36.1427 67.3908 37.7586 69.1733 39.029C70.9558 40.3029 73.2308 40.9869 76.0085 40.9869C79.2128 40.9869 81.7773 40.1563 83.6308 38.4426C85.413 36.729 86.3373 34.38 86.3373 31.3471C86.3373 28.8028 85.4843 26.7472 83.7728 25.3754C82.0615 23.9061 79.7155 23.2221 76.7955 23.2221C73.6623 23.2221 71.169 23.955 69.3205 25.4243C67.3908 26.8902 66.4665 28.7505 66.4665 31.0015ZM124.434 33.0084H100.932C101.003 35.5528 101.998 37.5108 103.923 38.9313C105.848 40.3518 108.483 41.0358 111.83 41.0358C115.603 41.0358 119.091 40.2052 122.153 38.4914V41.9188C119.162 43.3883 115.318 44.1211 110.545 44.1211C105.843 44.1211 102.141 43.095 99.4338 40.9869C96.7273 38.8824 95.3763 35.9472 95.3763 32.2267C95.3763 28.6528 96.8693 25.7176 99.7893 23.5152C102.78 21.264 106.34 20.1367 110.758 20.1367C115.176 20.1367 118.523 21.114 120.869 23.0719C123.22 24.9811 124.5 27.7209 124.5 31.1483L124.434 33.0084ZM118.949 29.8778C118.949 27.7243 118.238 26.1084 116.74 24.8868C115.247 23.7107 113.18 23.1244 110.687 23.1244C108.123 23.1244 105.985 23.7595 104.278 24.9846C102.567 26.2096 101.43 27.8709 101.003 29.829H118.949V29.8778ZM127.069 42.4075V39.8632C130.416 41.3325 133.833 42.0654 137.251 42.0654C140.882 42.0654 143.659 41.5768 145.584 40.4983C147.509 39.4199 148.362 38.0028 148.362 36.1427C148.362 34.5266 147.722 33.2075 146.437 32.1779C145.228 31.2006 142.38 29.8778 138.246 28.164C133.473 26.255 130.482 24.6391 129.273 23.4175C128.064 22.0948 127.348 20.6289 127.348 19.0128C127.348 16.7617 128.628 14.8526 131.193 13.2367C133.757 11.6696 137.175 10.8878 141.445 10.8878C144.223 10.8878 147.072 11.2298 149.778 11.865V14.1651C147.072 13.3344 144.081 12.8423 140.948 12.8423C137.743 12.8423 135.25 13.4286 133.401 14.4582C131.477 15.5856 130.624 16.9537 130.624 18.6186C130.624 20.2344 131.264 21.5538 132.548 22.5345C133.757 23.5116 136.606 24.8346 140.739 26.4993C145.081 28.2129 148.001 29.7312 149.428 31.0015C150.921 32.3244 151.566 33.8392 151.566 35.6016C151.566 38.0971 150.357 40.055 147.864 41.6711C145.371 43.2381 141.882 43.9711 137.327 43.9711C135.687 43.9711 133.909 43.8244 131.7 43.4824C129.705 43.1404 128.135 42.8961 127.069 42.4075ZM179.48 42.5541C176.987 43.5801 174.067 44.1211 170.578 44.1211C166.018 44.1211 162.387 43.0427 159.539 40.8892C156.761 38.7359 155.339 35.9961 155.339 32.471C155.339 28.8482 156.908 25.8642 160.041 23.5641C163.175 21.264 167.161 20.039 172.148 20.039C174.712 20.039 177.134 20.381 179.551 21.1175V23.4175C177.2 22.3914 174.565 21.8992 171.716 21.8992C167.801 21.8992 164.668 22.8765 162.174 24.7857C159.681 26.6947 158.543 29.2391 158.543 32.3244C158.543 35.3085 159.681 37.7097 161.89 39.5176C164.099 41.3291 167.09 42.2085 170.721 42.2085C174.067 42.2085 176.987 41.5734 179.409 40.3972V42.5505H179.48V42.5541ZM199.351 22.7788C198.356 22.2902 197.213 22.0459 195.791 22.0459C193.156 22.0459 190.947 23.0231 189.241 24.8834C187.458 26.7436 186.605 29.3856 186.605 32.8619V43.6778H183.614V20.6742H186.605V25.7628H186.747C187.458 24.0004 188.743 22.6288 190.378 21.7003C192.018 20.723 193.938 20.231 196.147 20.231C197.355 20.231 198.498 20.3287 199.422 20.6219V22.8242H199.351V22.7788ZM204.125 14.8491C203.485 14.8491 202.916 14.7026 202.413 14.3605C201.916 14.0185 201.702 13.6276 201.702 13.1355C201.702 12.6468 201.916 12.256 202.413 11.9593C202.911 11.6661 203.48 11.5195 204.125 11.5195C204.769 11.5195 205.333 11.6661 205.907 11.9593C206.405 12.2525 206.618 12.6434 206.618 13.1355C206.618 13.5752 206.405 14.015 205.907 14.3605C205.333 14.6537 204.764 14.8491 204.125 14.8491ZM202.626 43.5312V20.5764H205.618V43.5312H202.626ZM215.87 39.4687H215.728V54.1031H212.737V20.5764H215.728V25.3231H215.87C217.079 23.6095 218.719 22.3391 220.999 21.4072C223.279 20.4787 225.702 20.0356 228.332 20.0356C232.603 20.0356 235.878 21.0616 238.3 23.0196C240.651 25.0752 241.86 27.7662 241.86 31.1935C241.86 35.0606 240.438 38.1426 237.732 40.5402C235.025 42.8891 231.394 44.1141 226.976 44.1141C221.994 44.1211 218.293 42.603 215.87 39.4687ZM215.728 30.9527V33.8392C215.728 36.1391 216.794 38.146 218.861 39.7619C220.999 41.3779 223.706 42.2574 227.194 42.2574C230.541 42.2574 233.39 41.2314 235.528 39.2733C237.666 37.2175 238.732 34.6243 238.732 31.3437C238.732 28.4574 237.737 26.2062 235.741 24.4924C233.745 22.7788 231.181 21.948 227.905 21.948C224.061 21.948 220.999 22.8276 218.861 24.6391C216.728 26.4993 215.728 28.5062 215.728 30.9527ZM259.953 43.2381C258.385 43.7267 256.89 43.9711 255.613 43.9711C250.695 43.9711 248.208 41.9154 248.208 37.8528V22.5345H242.226V20.6742H248.208V14.7025L249.701 14.3605L251.193 14.0185V20.6742H260.025V22.5345H251.193V37.6574C251.193 39.2244 251.55 40.3483 252.26 41.0846C252.97 41.8176 254.255 42.1631 255.963 42.1631C257.17 42.1631 258.528 41.8699 260.02 41.3325V43.2415H259.953V43.2381Z" fill="#5FA0FF"/>
</g>
</svg>
