<svg width="200" height="80" viewBox="0 0 200 80" fill="none" xmlns="http://www.w3.org/2000/svg">
<path d="M81.564 19.9882L50.2473 64.7317C49.6007 65.6554 47.9396 65.6609 47.2833 64.7415L15.3456 19.9925C14.6307 18.9907 15.7028 17.7773 17.1236 17.9802L48.4738 22.4575C48.6738 22.4861 48.8786 22.4858 49.0785 22.4567L79.7731 17.9866C81.1892 17.7804 82.2664 18.9845 81.564 19.9882Z" fill="url(#paint0_linear_183_603)"/>
<path d="M63.4077 12.1076L40.2324 15.7359C39.8515 15.7956 39.5695 16.0535 39.5465 16.363L38.1209 35.6006C38.0874 36.0537 38.6082 36.4054 39.1617 36.3034L45.614 35.1136C46.2177 35.0024 46.7632 35.4272 46.6392 35.9123L44.7222 43.4126C44.5932 43.9174 45.1863 44.349 45.8033 44.1993L49.7886 43.2318C50.4064 43.082 51 43.5148 50.8693 44.02L47.8229 55.8012C47.6323 56.5382 48.8591 56.94 49.3707 56.3082L49.7125 55.8862L68.597 25.7743C68.9132 25.2701 68.3679 24.6952 67.6748 24.802L61.0332 25.8262C60.4091 25.9224 59.8781 25.458 60.0542 24.9701L64.3891 12.9633C64.5654 12.4746 64.0325 12.0098 63.4077 12.1076Z" fill="url(#paint1_linear_183_603)"/>
<path d="M97.9085 28.2985L107.232 50.8566H107.599L116.905 28.2985H124.042L111.413 56.958H103.401L90.7891 28.2985H97.9085ZM128.485 56.958V35.4634H134.817V56.958H128.485ZM131.669 32.4127C130.666 32.4127 129.803 32.1468 129.08 31.615C128.357 31.0739 127.995 30.4256 127.995 29.6699C127.995 28.9049 128.357 28.2565 129.08 27.7247C129.803 27.1836 130.666 26.9131 131.669 26.9131C132.683 26.9131 133.546 27.1836 134.258 27.7247C134.981 28.2565 135.342 28.9049 135.342 29.6699C135.342 30.4256 134.981 31.0739 134.258 31.615C133.546 32.1468 132.683 32.4127 131.669 32.4127ZM154.741 35.4634V39.3816H139.295V35.4634H154.741ZM143.109 30.3136H149.441V50.4928C149.441 51.1738 149.569 51.6963 149.826 52.0601C150.094 52.4146 150.444 52.6572 150.875 52.7878C151.307 52.9184 151.785 52.9837 152.31 52.9837C152.706 52.9837 153.068 52.9604 153.394 52.9137C153.732 52.8671 153.989 52.8251 154.164 52.7878L155.231 56.7481C154.893 56.8413 154.409 56.944 153.779 57.0559C153.161 57.1679 152.403 57.2332 151.505 57.2518C149.919 57.2891 148.491 57.0979 147.219 56.6781C145.948 56.2489 144.94 55.5866 144.193 54.691C143.459 53.7953 143.097 52.6758 143.109 51.3324V30.3136ZM171.656 57.3778C168.962 57.3778 166.636 56.93 164.677 56.0344C162.729 55.1294 161.231 53.8513 160.181 52.2C159.132 50.5394 158.607 48.585 158.607 46.3366C158.607 44.1256 159.132 42.1851 160.181 40.5151C161.243 38.8359 162.724 37.5298 164.624 36.5969C166.525 35.6546 168.758 35.1835 171.324 35.1835C172.98 35.1835 174.543 35.398 176.012 35.8272C177.493 36.247 178.799 36.9001 179.93 37.7863C181.073 38.6726 181.971 39.8015 182.624 41.1729C183.277 42.5349 183.604 44.1582 183.604 46.0427V47.5961H161.581V44.1815H177.534C177.522 43.2113 177.26 42.3483 176.747 41.5927C176.233 40.8277 175.516 40.2259 174.595 39.7875C173.685 39.349 172.624 39.1298 171.411 39.1298C170.117 39.1298 168.98 39.3816 168 39.8854C167.021 40.3799 166.257 41.0329 165.709 41.8446C165.172 42.6469 164.898 43.5285 164.887 44.4894V47.4701C164.887 48.7202 165.172 49.7931 165.744 50.6887C166.315 51.575 167.114 52.256 168.14 52.7318C169.167 53.1983 170.368 53.4315 171.744 53.4315C172.665 53.4315 173.499 53.3289 174.245 53.1236C174.991 52.9091 175.639 52.5965 176.187 52.1861C176.735 51.7756 177.149 51.2671 177.429 50.6607L183.341 51.1925C182.968 52.4426 182.257 53.5341 181.207 54.4671C180.169 55.3907 178.84 56.109 177.219 56.6221C175.598 57.1259 173.744 57.3778 171.656 57.3778Z" fill="#1A1A1A"/>
<defs>
<linearGradient id="paint0_linear_183_603" x1="14.5659" y1="16.3811" x2="43.0718" y2="64.8338" gradientUnits="userSpaceOnUse">
<stop stop-color="#41D1FF"/>
<stop offset="1" stop-color="#BD34FE"/>
</linearGradient>
<linearGradient id="paint1_linear_183_603" x1="46.6745" y1="13.0927" x2="51.2097" y2="52.03" gradientUnits="userSpaceOnUse">
<stop stop-color="#FFEA83"/>
<stop offset="0.0833333" stop-color="#FFDD35"/>
<stop offset="1" stop-color="#FFA800"/>
</linearGradient>
</defs>
</svg>
